<svg xmlns="http://www.w3.org/2000/svg" width="660" height="660" viewBox="0 0 660 660">
  <g id="Layer_3" data-name="Layer 3">
    <g>
      <g>
        <path d="M367.45,80.52c-.05-4.34,2.44-8.37,5.38-9,5.2-1,6.42,5.5,6.42,5.5S396,68.45,392.51,55.75h0l.43.38c1.48,1.43,6.22,6.5,7.21,11.84,1.17,6.28-1.55,8.93.44,12,2.46,3.8,4.07,5.89,3.08,7.38l0,0a1.56,1.56,0,0,1-.16.2,5.57,5.57,0,0,1-2.29,1.32s-1.37,1.8-.19,3.13l0,.06c1.06,1.31-1.17,2.6-2.89,1.88h0c.09.08,2.62,2.19.95,2.86a1.93,1.93,0,0,0-.38.19,2.63,2.63,0,0,0-1.23,1.89,8.68,8.68,0,0,1-.38,3.44,5.37,5.37,0,0,1-.36.66c-.71,1.08-2.1,1.94-4.81,1.18l-8.14-3.37c-.63-.27-1.25-.53-1.85-.8h0a195.06,195.06,0,0,0-5.75,20.77c-1.69,8.37-28.67-4.83-23-10.83C362.14,100.38,367.45,80.52,367.45,80.52Z" fill="#eba380"/>
        <ellipse cx="395.33" cy="78.08" rx="2.02" ry="1.69" transform="translate(221.29 441.52) rotate(-75.58)" fill="#000078"/>
        <path d="M398.65,73.53s-4-.85-4.91-.85a2.35,2.35,0,0,0-2.33,1.5,22.9,22.9,0,0,0,6.39,1.1C398.78,75,398.65,73.53,398.65,73.53Z" fill="#000078"/>
      </g>
      <path d="M445.74,338.39s2.54,23.89,2.55,32.71l10,3.75,9.16-9.07s.33-20.87-2.63-32.18Z" fill="#eba380"/>
      <path d="M443.37,385.64s-2-15.6,1.78-17.7,6.61,5,10.31,3.38,8.42-9.06,12-9,16.85,12.35,26.36,11.67,14,1.5,14.21,4.18-37,15.62-64.68,7.51" fill="#1964dc"/>
      <path d="M452.51,244.39c-12.74-5.94-70.77-24.71-85-22.88-10,1.29-26.65-17.08-37.8-7.33,0,0-3.9,24.25-3.52,28.63,1.93,22.72,20.28,26,46,26.5s83.49,5,83.49,5Z" fill="#000078"/>
      <path d="M433.05,268.19C433.18,299,446,328,444.84,350c-.11,2,23.9,3.64,23.38-2,2.06-29.79-2.16-92.91-15.71-103.63Z" fill="#000078"/>
      <path d="M354.65,98.43s-1.13,8-3.67,12.42c-5.16,9-16.53,21.78-19.41,43.21-6.49,48.23-15.62,68.17-10.86,71.11,15.91,9.84,56.32,4.24,68.77-.71,4.28-1.7-3.54-36.82,0-58.27,10.74-9.08-2.08-26-5.56-34.45-1.8-4.36-3.48-9.64-3.48-12.25,0-4.3,2.07-10.14,2.07-10.14C376.26,106.74,360.3,100.17,354.65,98.43Z" fill="#1964dc"/>
      <path d="M431.28,264h-26.8a74.76,74.76,0,0,0-20.9-33.36c-8.57-7.88-19.24-14.11-31.73-18.53A129.71,129.71,0,0,0,313.73,205l-8.17-54.35-5.89.89,18.52,123.27L301,392.18h4.07l24.05-112.32h37.44c7.82,0,23.34.33,38.1-.87l24.23,113.19H433L416.17,277.66c6.83-1.07,12.92-2.63,17.24-4.93A4.62,4.62,0,0,0,431.28,264Zm-108.69,0-8-53a125,125,0,0,1,35.23,6.72c11.73,4.15,21.72,10,29.68,17.29a68.75,68.75,0,0,1,18.69,29Z" fill="#008cd2"/>
      <polygon points="456 396 468 396 508 202 487 202 456 396" fill="#82bef5"/>
      <g>
        <path d="M536.93,180.49l-9.48-.06,10.93-72.27h.24c4.91,0,2.89,25.63,2.61,28.52Z" fill="#c8c8c8"/>
        <path d="M468.7,180.43H537a0,0,0,0,1,0,0v1.09a5.24,5.24,0,0,1-5.24,5.24H464.84a0,0,0,0,1,0,0v-2.47A3.86,3.86,0,0,1,468.7,180.43Z" fill="#c8c8c8"/>
      </g>
      <path d="M404.94,169.38c-4.26-15.32-28.68-43.25-31.46-44.79-2.51-1.39-12.87-10.59-22.77,3.77C333,154,383.9,190.86,392.4,193.16S404.94,169.38,404.94,169.38Z" fill="#1964dc"/>
      <rect x="457" y="186" width="163" height="16" fill="#82bef5"/>
      <path d="M450.89,186.21S460,192,473,187.39l5.67.49s-.31,6.32,1.54,7.52c0,0,1.89-2.77,1.87-9.21a1.2,1.2,0,0,0-.73-1.1,31.76,31.76,0,0,0-3.79-1.48,22.27,22.27,0,0,0,6.93.42s-.41,8.84,1.59,8.88a29.79,29.79,0,0,0,2.05-9.8,1.32,1.32,0,0,0-.9-1.34c-1.31-.46-3.53-1.21-3.61-1.17a32.69,32.69,0,0,0,13.58-.37s.9-1.33-.68-1.47c-1.88-.16-15.4-1.71-20.49-2.13s-16.75.47-16.75.47-24.11-2.54-25.21-1.76c-4.26,3-8.66,12.68-8.66,12.68Z" fill="#eba380"/>
      <path d="M392.4,193.16c5.19,2.3,35.57,9.47,44.31-3.64,1.58-2.36,6.21-14.3,0-16.75,0,0-17.45-4.85-32.74-6.28C393.31,165.5,387.22,190.86,392.4,193.16Z" fill="#1964dc"/>
      <path d="M356.41,58.18c16.53-23.85,45.6-1.1,45.3,12.18l-7.81,1a25.23,25.23,0,0,0-.5-8.73c-.33,7.9-10.84,14.37-14,15.38-5-15.35-18.38,3.9-7.1,9.41-6.47,9.63-.49,19.1-.49,19.1a36.49,36.49,0,0,1-36.57-9.38C327.33,89.22,326.68,82.5,328,80,330.69,75.1,345.21,76.36,356.41,58.18Z" fill="#000078"/>
      <path d="M444.29,187.59c-1.37,1.93-7.58,1.93-7.58,1.93V172.77l7,1.2S445.65,185.66,444.29,187.59Z" fill="#1964dc"/>
    </g>
    <g>
      <path d="M297.82,589.24l-12.17,6.4s-14.57-4.79-13-8.4c1.77-4.08-8.48-22.5-8.48-22.5l22.1-9.88C284.18,565.61,297.82,589.24,297.82,589.24Z" fill="#eba380"/>
      <g>
        <g>
          <path d="M172.9,167.09c-.48-.3.75,26.58.75,26.58l17.8,5.35,15.33-13.13-5.33-20.13L197,154Z" fill="#eba380"/>
          <g>
            <path d="M153.74,147.15c1-2.74,7.79-8.25,4.88-12.41-3.68-5.27,7.78-20.78,10.34-20.13,7.5-2,21.66,2.75,20.58,15.82-.09,1.06.76,2.91,1.76,4.67,1.73-4.14,5.38-6.61,8.56-5.62a8,8,0,0,1,5,10c-1.48,4.68-5.17,7.92-7,8.39.32,8.75-2.64,19.75-7.18,20.68,0,0-18.21,3.83-24.49,3.83-7.19,0-7.64-5.47-6.11-7.37.44-.53.36-2.84,0-3-1.27-.52-1.87-2.22-.94-3.16a5.48,5.48,0,0,0,3-1.57,13,13,0,0,1-3.29.26c-1.39-.11-1.93-1.84-.93-2.5a15.7,15.7,0,0,0,.44-2.86C153.61,152.41,153.23,148.47,153.74,147.15Z" fill="#eba380"/>
            <path d="M153.77,110.7c2.65-4.84,7.85-6,9.71-2.85,1.93-9.86,17.66-18.34,25.22-6.91,2-3.81,24-5,32.26,13.85,4.37,9.95-1.12,17-1.18,17.1,4.7,2.48,4.63,12.65,2.78,16.51-7.57,15.82-14.54,14-20.85,18.43h0l-.68.3a33.86,33.86,0,0,1-6-6.59c-3.7-5.27-.13-12.06,2.13-13.77,0,0-4.8-9-4.87-8.68-1.45,1.49-5.24,1.42-6.76,0-2.09-1.89-4.74-6.21-2.12-10.87-5.89-.3-8.19-5.85-5.83-10.89-4.93,2.78-9.2,7.16-16.34,5.55C161.28,121.93,149.57,118.41,153.77,110.7Z" fill="#000078"/>
            <ellipse cx="165.49" cy="138.72" rx="2.29" ry="2.81" fill="#000078"/>
            <path d="M162.11,129.67s8.29-.36,9.87-.12a3.94,3.94,0,0,1,3.46,3.11c.13.33-10.84.78-12.39.12S162.11,129.67,162.11,129.67Z" fill="#000078"/>
          </g>
          <g>
            <line x1="158.91" y1="138.86" x2="160.97" y2="138.99" fill="#fff" stroke="#fff" stroke-linecap="round" stroke-miterlimit="10" stroke-width="0.74"/>
            <line x1="190.71" y1="137.12" x2="167.67" y2="138.54" fill="#fff" stroke="#fff" stroke-miterlimit="10" stroke-width="0.74"/>
            <ellipse cx="164.39" cy="138.64" rx="3.34" ry="8.73" fill="#fff" opacity="0.33"/>
            <ellipse cx="164.39" cy="138.64" rx="3.34" ry="8.73" fill="#000078" stroke="#fff" stroke-miterlimit="10" stroke-width="0.74"/>
          </g>
          <path d="M190.81,136.83c-.91,4.93,1.24,9.45,4.79,10.1s7.17-2.82,8.07-7.75-1.24-9.45-4.79-10.1S191.71,131.9,190.81,136.83Z" fill="#eba380"/>
        </g>
        <polygon points="105.74 596.43 88.08 605.66 85.54 590.1 94.45 567.52 112.08 572.77 105.74 596.43" fill="#eba380"/>
        <path d="M39,588.83c2.38,4.64,64,24.54,66.6,24.06a.71.71,0,0,0,.18-.08c-.68,2-1.35,3.33-1.92,3.44-2.58.49-63.27-19.1-65.6-23.72-.45-.9-.09-2.47.61-4.09A1.63,1.63,0,0,0,39,588.83Z" fill="#c8c8c8"/>
        <path d="M39,588.83a1.63,1.63,0,0,1-.13-.39c1.19-2.73,3.36-5.59,4.23-5.54,25.53,1.43,43.57-4.13,43.57-4.13s2,1.24,4.31,5.64l1,1.64s2.57,4.79,6.32,5.68,8.26-3.71,11.34-1.63c.94.64-1.53,15.75-3.89,22.71a.71.71,0,0,1-.18.08C103,613.37,41.34,593.47,39,588.83Z" fill="#82bef5"/>
        <path d="M167.7,345.7s37.13,121,46.63,135.33c6.38,9.64,36.67,65,49.83,94.22,0,0,29.29-5.62,31.34-10.36,5.82-13.43-44.95-105.41-44.95-105.41-4.05-18.62-20.49-131-24.08-138C217.78,304.31,167.7,345.7,167.7,345.7Z" fill="#003cb4"/>
        <path d="M221.46,333.56,161.35,466.34c-1.68,30.48-35.63,108.53-42.18,110.17s-27.89-6.37-27.89-6.37c8-28.81,22-92,23.3-104.09,4.23-40,37-130.38,37-130.38S219,307.78,221.46,333.56Z" fill="#003cb4"/>
        <g>
          <path d="M235.85,617.5c4.39,2.82,67.68-10.86,69.69-12.59a.48.48,0,0,0,.12-.16c.42,2.07.51,3.55.07,3.94-2,1.72-64.31,15.21-68.65,12.38-.85-.55-1.33-2.09-1.53-3.84A1.53,1.53,0,0,0,235.85,617.5Z" fill="#c8c8c8"/>
          <path d="M235.85,617.5a1.53,1.53,0,0,1-.3-.27c-.35-3,.08-6.53.86-6.92,22.8-11.56,35.6-25.42,35.6-25.42s2.37.06,6.57,2.72l1.71.9s4.63,2.86,8.33,1.75,5.27-7.35,9-7.1c1.13.08,6.6,14.39,8.06,21.59a.48.48,0,0,1-.12.16C303.53,606.64,240.24,620.32,235.85,617.5Z" fill="#82bef5"/>
        </g>
        <g>
          <path d="M204.7,404.42c.68-11.45-9-21.36-21.48-22.1a23.75,23.75,0,0,0-16.31,5,19.79,19.79,0,0,0-7.64,14.37l5.75.34a14.08,14.08,0,0,1,5.49-10.22,18,18,0,0,1,12.37-3.78c9.35.55,16.56,7.74,16.07,16Z" fill="#000078"/>
          <rect x="124.4" y="400.48" width="110.19" height="75.14" rx="4.99" transform="translate(332.72 885.96) rotate(-176.6)" fill="#000078"/>
        </g>
        <path d="M171.48,379.61v0c.68-4.13,4.92-9.92,5.71-12.9s6.41-24.9,6.41-24.9l16.48,3.82-4.74,22.73,1.53,17.68a5.71,5.71,0,0,1-2,4.43,2.68,2.68,0,0,1-2.19.49s-1.82,2.8-3.22,2.84-2.66-.05-2.66-.05a7.29,7.29,0,0,1-2.68,2.36c-1.43.55-4.09-1.39-4.09-1.39s-2.36,3.26-4.35,2.63c-.58-.18-1.2-1.34-1.79-3a12.23,12.23,0,0,1-2.73,2.21C168,397.9,171.48,379.61,171.48,379.61Z" fill="#eba380"/>
        <path d="M207,181.59l-33.66,9.29a123.79,123.79,0,0,0-15,39.11c-3.39,17.47-20.61,110.22-10.67,117.36s78.77,1.57,79.14.48S207,181.59,207,181.59Z" fill="#82bef5"/>
        <path d="M187.58,190.1c-24.78,12.18-2,42.37,5.4,95.3l-22.47,82,29.55,4.39s37-67.89,35.09-98.7C232.64,233.23,205.79,181.15,187.58,190.1Z" fill="#000078"/>
        <path d="M176.49,192.72l1.64-14s28.18-7,29.63-7.75l3.11,11.32c4.11,4,10,12.09,17.55,28.73,11.64,28.31,13.8,49.08,14.73,78.77.66,21.16,5,57.89,2.66,71.87-1.14,6.93-92,.84-92.1-4.6C153,330.08,175.14,201.86,176.49,192.72Z" fill="#000078"/>
        <path d="M190.6,148.14l2.73-6.33a3.1,3.1,0,0,1-.08-2.63,3.13,3.13,0,1,1,2.47,4.33l-2.48,5.76Z" fill="#fff"/>
      </g>
    </g>
    <g>
      <path d="M611.65,105.46C615.19,99.33,615,94,613.8,90.87c-1-2.6-9.48-1-12.23,7.07-2.29,6.7-5.28,12.44-2.34,14.13S608.1,111.6,611.65,105.46Z" fill="#1964dc"/>
      <path d="M571.91,117.33c5.75,5.17,14.89,8.1,14.88,4.4,0-6.58-.17-9.16-5.91-14.34s-11-4.6-14.88-4.4C562.31,103.17,566.17,112.15,571.91,117.33Z" fill="#1964dc"/>
      <path d="M565.43,73.24c6.24,10.19,17.21,13.89,22.08,10.91s1.8-11.52-4.44-21.71-15.25-16-20.12-13S559.19,63.06,565.43,73.24Z" fill="#1964dc"/>
      <path d="M583.3,29.89c-1.73,11.82,3.5,25.17,9.15,26s9.59-11.19,11.31-23S598,11.16,592.36,10.34,585,18.08,583.3,29.89Z" fill="#1964dc"/>
      <path d="M601.25,56.86c-4.09,8.22-4.23,16.46-.3,18.42S611.38,72.16,615.48,64s2.2-13.19.3-18.41C614.28,41.42,605.35,48.65,601.25,56.86Z" fill="#1964dc"/>
      <path d="M600.59,106.44a32.88,32.88,0,0,0-5,7.4c-.21-8.93-.45-18.52-.71-27.55h0c.46-4.2,3.53-10.67,8.87-18.71,4.06-6.1,8-11,8.06-11l-.5-.41s-4,5-8.09,11.09c-4.43,6.67-7.26,12.13-8.43,16.28-.35-12-.72-22.84-1.08-29.4h0c-.13-2.78-.64-13-1.52-21.44l-.63.06c1,9.77,1.53,21.91,1.54,22.13h0s.84,13.52,1.18,31.1c0,.09,0,.18,0,.26h0c.09,4.34.14,8.93.14,13.62-4.22-18-22.42-37.46-22.61-37.67l-.47.44c.21.22,20.52,22,23,40.56h0c0,8.18-.26,16.56-.74,24.41-2.31-3.17-7.47-7.24-9.51-8.85-5.42-4.28-11-8.08-11-8.12l-.36.53c5.33,3.63,18,12.87,20.85,17.43a163,163,0,0,1-2.65,22h5.41s-.3-15.84-.75-35.1c2.4-6.84,11.39-14.62,11.5-14.7l-.42-.49A64.51,64.51,0,0,0,600.59,106.44Z" fill="#000078"/>
      <rect x="573" y="140" width="41" height="46" fill="#00bef0"/>
    </g>
  </g>
</svg>
