<svg xmlns="http://www.w3.org/2000/svg" width="188" height="42" viewBox="0 0 188 42">
    <g fill="none" fill-rule="evenodd">
        <path stroke="#FFFFFF" stroke-width="2" d="M1 41h40V1H1v40z"/>
        <path fill="#FFFFFF" d="M37 5H21.64L13 21.516 21.64 37H37l-8.64-15.484z"/>
        <path fill="#FFFFFF" fill-rule="nonzero" d="M168.14 21.334h1.859v8.825l4.046-4.088h2.529l-4.68 4.463 5.271 5.609H174.5l-4.501-5.174v5.174h-1.859v-14.81zm-11.63 4.739h1.797v1.598h.04c.553-1.145 1.895-1.835 3.298-1.835 2.607 0 3.771 1.619 3.771 4.324v5.982h-1.855V30.93c0-2.349-.515-3.495-2.134-3.594-2.112 0-3.06 1.699-3.06 4.147v4.66h-1.856v-10.07h-.001zm-4.561 5.272c-.395 0-.79-.04-1.185-.04-1.007 0-3.495.159-3.495 1.935 0 1.066 1.026 1.639 1.876 1.639 1.836 0 2.804-1.145 2.804-2.645v-.889zm-5.509-4.561c.928-.553 2.034-.948 3.317-.948 2.883 0 4.047 1.422 4.047 4.165v4.168c0 1.145.04 1.678.08 1.974h-1.738V34.84h-.04c-.432.611-1.421 1.54-3.12 1.54-2.171 0-3.692-.948-3.692-3.14 0-2.528 2.765-3.318 4.681-3.318.73 0 1.243 0 1.974.04 0-1.737-.632-2.626-2.488-2.626-1.046 0-2.173.395-2.923 1.028l-.1-1.58h.002zm-7.267.552c-2.015 0-2.982 1.915-2.982 3.792 0 1.677.869 3.75 2.962 3.75 1.994 0 2.824-2.23 2.784-3.81.04-1.817-.752-3.732-2.764-3.732zm-4.839-6.002h1.857v6.12h.04c.573-.928 1.579-1.619 3.337-1.619 2.922 0 4.344 2.389 4.344 5.095 0 2.764-1.284 5.449-4.324 5.449-1.798 0-2.943-.908-3.435-1.659h-.04v1.423h-1.778v-14.81h-.001zm-4.818 0h1.856v14.808h-1.856V21.334zm-4.799 10.011c-.395 0-.79-.04-1.185-.04-1.007 0-3.495.159-3.495 1.935 0 1.066 1.027 1.639 1.876 1.639 1.835 0 2.804-1.145 2.804-2.645v-.889zm-5.51-4.561c.93-.553 2.035-.948 3.318-.948 2.882 0 4.047 1.422 4.047 4.165v4.168c0 1.145.04 1.678.08 1.974h-1.738V34.84h-.04c-.436.611-1.422 1.54-3.119 1.54-2.174 0-3.694-.948-3.694-3.14 0-2.528 2.765-3.318 4.68-3.318.731 0 1.244 0 1.975.04 0-1.737-.633-2.626-2.489-2.626-1.046 0-2.171.395-2.921 1.028l-.1-1.58h.001zm-12.103-.711h1.798v1.598h.04c.553-1.145 1.897-1.835 3.298-1.835 2.606 0 3.771 1.619 3.771 4.324v5.982h-1.856V30.93c0-2.349-.513-3.495-2.133-3.594-2.112 0-3.061 1.699-3.061 4.147v4.66h-1.855v-10.07h-.002zm-7.169 8.806c2.173 0 3.14-1.974 3.14-3.771 0-1.916-1.165-3.772-3.14-3.772-1.995 0-3.159 1.857-3.159 3.772 0 1.797.968 3.77 3.159 3.77zm0-9.043c3.06 0 5.114 2.212 5.114 5.272 0 2.883-2.093 5.272-5.114 5.272-3.041 0-5.134-2.389-5.134-5.273 0-3.06 2.054-5.27 5.134-5.27zm-6.36 1.738H90.91v5.509c0 1.163.711 1.796 1.56 1.796.573 0 .987-.178 1.264-.355v1.579c-.414.118-.988.276-1.579.276-1.915 0-3.101-.908-3.101-2.921v-5.884h-2.27v-1.501h2.27v-2.33l1.856-.593v2.923h2.665v1.5zm-16.98-1.502h1.797v1.6h.04c.552-1.146 1.894-1.836 3.297-1.836 2.606 0 3.771 1.619 3.771 4.324v5.982h-1.856V30.93c0-2.349-.514-3.495-2.133-3.594-2.112 0-3.06 1.699-3.06 4.147v4.66h-1.856v-10.07zm-4.564 5.273c-.395 0-.788-.04-1.185-.04-1.006 0-3.493.159-3.493 1.935 0 1.066 1.026 1.639 1.875 1.639 1.837 0 2.803-1.145 2.803-2.645v-.889zm-5.509-4.561c.928-.553 2.034-.948 3.318-.948 2.882 0 4.048 1.422 4.048 4.165v4.168c0 1.145.039 1.678.079 1.974h-1.738V34.84h-.04c-.434.611-1.421 1.54-3.12 1.54-2.171 0-3.691-.948-3.691-3.14 0-2.528 2.764-3.318 4.68-3.318.73 0 1.244 0 1.974.04 0-1.737-.632-2.626-2.488-2.626-1.046 0-2.172.395-2.922 1.028l-.1-1.58zM53.59 22.36h1.975v6.063l5.884-6.063h2.625l-6.477 6.516 6.99 7.266h-2.882l-6.14-6.753v6.753h-1.975V22.36zm61.077-13.402h1.737v1.56h.04c.493-1.047 1.56-1.797 2.625-1.797.553 0 .83.059 1.226.138v1.659c-.338-.14-.713-.178-1.029-.178-1.659 0-2.744 1.579-2.744 4.106v4.582h-1.856V8.957h.001zm-4.068 4.067c0-1.54-.907-2.804-2.506-2.804-1.818 0-2.569 1.502-2.707 2.804h5.213zm1.205 5.588c-.71.257-1.521.652-3.18.652-3.572 0-5.212-2.172-5.212-5.45 0-2.981 1.876-5.094 4.72-5.094 3.356 0 4.441 2.448 4.441 5.687h-7.187c0 1.993 1.56 3.356 3.318 3.356 1.225 0 2.645-.631 3.1-1.006v1.855zM92.41 4.219h1.858v6.18h.04c.67-1.066 1.836-1.678 3.237-1.678 2.606 0 3.77 1.619 3.77 4.324v5.982h-1.854v-5.212c0-2.35-.513-3.495-2.132-3.594-2.113 0-3.061 1.698-3.061 4.146v4.66H92.41V4.22zm-1.974 6.437c-.71-.296-1.421-.435-2.014-.435-2.073 0-3.238 1.857-3.238 3.773 0 1.796.967 3.771 3.356 3.771.632 0 1.422-.198 1.995-.573l.139 1.658c-.77.355-1.659.415-2.33.415-3.042 0-5.134-2.389-5.134-5.271 0-3.062 2.053-5.273 5.134-5.273.75 0 1.719.178 2.25.395l-.158 1.54zM76.752 8.957h1.738v1.56h.039c.493-1.046 1.561-1.796 2.626-1.796.552 0 .83.059 1.225.138v1.659c-.336-.14-.71-.178-1.027-.178-1.658 0-2.744 1.579-2.744 4.106v4.582h-1.856V8.957zm-6.517-3.513h1.856v1.975h-1.856V5.444zm-3.237 0h1.856v1.975h-1.856V5.444zm6.988 13.584H72.19v-1.6h-.037c-.553 1.146-1.895 1.837-3.296 1.837-2.608 0-3.773-1.619-3.773-4.324V8.957h1.856v5.214c0 2.349.514 3.494 2.133 3.593 2.114 0 3.061-1.698 3.061-4.146v-4.66h1.855v10.07h-.003zM53.55 17.253l7.148-10.268h-6.91V5.25h9.18v1.778L55.84 17.294h7.246v1.738H53.55v-1.778z"/>
    </g>
</svg>
