<?xml version="1.0" encoding="UTF-8"?>
<svg width="220" height="32" viewBox="0 0 275 40" fill="none" xmlns="http://www.w3.org/2000/svg">
  <path d="M26.4106 19.9999L35.5455 34.9172H20.467L11.3322 19.9999L20.467 5.08536H35.5455L26.4106 19.9999ZM38.3772 1.62278H1.62278V38.3772H38.3772V1.62278ZM40 0V40H0V0H40Z" fill="#003CB4"></path>
  <path d="M51.735 16.6737L58.6425 6.75101H51.9639V5.07187H60.8368V6.78967L53.9481 16.7124H60.951V18.3915H51.7344L51.735 16.6737ZM71.4855 18.3915H69.749V16.8458H69.711C69.1764 17.953 67.879 18.6204 66.5242 18.6204C64.0055 18.6204 62.8796 17.056 62.8796 14.4419V8.65969H64.6735V13.6971C64.6735 15.9682 65.1694 17.0742 66.7344 17.1702C68.7759 17.1702 69.6916 15.5291 69.6916 13.1632V8.65969H71.4855V18.3915ZM64.7309 5.26273H66.5248V7.1708H64.7309V5.26273ZM67.8603 5.26273H69.6536V7.1708H67.8603V5.26273ZM74.1583 8.65969H75.838V10.1673H75.8761C76.3527 9.15618 77.3837 8.43077 78.4136 8.43077C78.9481 8.43077 79.2157 8.48815 79.5968 8.56425V10.1673C79.2725 10.0332 78.9101 9.99576 78.6044 9.99576C77.002 9.99576 75.9522 11.5215 75.9522 13.9647V18.3921H74.1577L74.1583 8.65969ZM87.3825 10.3008C86.6957 10.0145 86.009 9.881 85.4358 9.881C83.4329 9.881 82.3064 11.6749 82.3064 13.5262C82.3064 15.2627 83.2414 17.1708 85.5499 17.1708C86.1612 17.1708 86.924 16.9799 87.4779 16.6175L87.612 18.2194C86.8685 18.5624 86.009 18.6204 85.3597 18.6204C82.4211 18.6204 80.3983 16.3113 80.3983 13.5256C80.3983 10.5678 82.3825 8.43077 85.3597 8.43077C86.0845 8.43077 87.0201 8.60231 87.5353 8.8125L87.3825 10.3008ZM89.2906 4.08008H91.0857V10.0525H91.1237C91.7725 9.02209 92.8983 8.43077 94.2531 8.43077C96.7725 8.43077 97.8971 9.99576 97.8971 12.6093V18.3915H96.1044V13.3535C96.1044 11.083 95.6085 9.97643 94.0435 9.88039C92.002 9.88039 91.0863 11.5215 91.0863 13.8874V18.3915H89.2912L89.2906 4.08008ZM108.032 17.9904C107.344 18.2387 106.561 18.6204 104.959 18.6204C101.506 18.6204 99.9206 16.5215 99.9206 13.3535C99.9206 10.4723 101.734 8.43077 104.483 8.43077C107.726 8.43077 108.775 10.7967 108.775 13.9267H101.829C101.829 15.8535 103.337 17.1702 105.035 17.1702C106.219 17.1702 107.592 16.5595 108.032 16.1971V17.9904ZM106.867 12.5906C106.867 11.1023 105.99 9.881 104.444 9.881C102.688 9.881 101.963 11.3312 101.829 12.5906H106.867ZM110.799 8.65969H112.479V10.1673H112.517C112.994 9.15618 114.025 8.43077 115.054 8.43077C115.589 8.43077 115.856 8.48815 116.239 8.56425V10.1673C115.913 10.0332 115.551 9.99576 115.245 9.99576C113.642 9.99576 112.593 11.5215 112.593 13.9647V18.3921H110.799L110.799 8.65969ZM51.773 21.6115H53.6811V27.4698L59.3673 21.6115H61.9047L55.646 27.9089L62.4012 34.9311H59.6155L53.6811 28.4042V34.9311H51.773L51.773 21.6115ZM64.273 25.8855C65.1694 25.3515 66.2379 24.9698 67.4785 24.9698C70.2642 24.9698 71.3907 26.3433 71.3907 28.9955V33.0225C71.3907 34.129 71.4288 34.6448 71.4668 34.9305H69.7877V33.6712H69.7496C69.3298 34.2625 68.3761 35.1594 66.7344 35.1594C64.6355 35.1594 63.1665 34.2438 63.1665 32.1255C63.1665 29.6829 65.838 28.9194 67.6887 28.9194C68.3948 28.9194 68.8907 28.9194 69.5968 28.9581C69.5968 27.2783 68.9868 26.42 67.1928 26.42C66.1817 26.42 65.0939 26.8018 64.3691 27.4124L64.273 25.8855ZM69.5962 30.2941C69.2145 30.2941 68.8333 30.2561 68.451 30.2561C67.4779 30.2561 65.074 30.4089 65.074 32.1261C65.074 33.1559 66.0664 33.7098 66.8866 33.7098C68.6612 33.7098 69.5962 32.6033 69.5962 31.1536V30.2941ZM74.0061 25.1993H75.7426V26.745H75.7807C76.3152 25.6384 77.6126 24.9704 78.9668 24.9704C81.4861 24.9704 82.612 26.5348 82.612 29.1489V34.9311H80.8181V29.8937C80.8181 27.6232 80.3216 26.516 78.7572 26.4206C76.7157 26.4206 75.7994 28.0617 75.7994 30.4276V34.9311H74.0061V25.1993ZM90.4165 26.6502H87.8409V31.9733C87.8409 33.0986 88.5283 33.7092 89.3479 33.7092C89.9018 33.7092 90.3023 33.5383 90.5686 33.3661V34.8925C90.1688 35.0066 89.6149 35.1595 89.0435 35.1595C87.1928 35.1595 86.047 34.2818 86.047 32.3351V26.6495H83.8527V25.1987H86.047V22.947L87.8409 22.3744V25.1987H90.4165V26.6502ZM96.5622 24.9704C99.5195 24.9704 101.504 27.1074 101.504 30.0658C101.504 32.8515 99.4814 35.1607 96.5622 35.1607C93.6231 35.1607 91.6009 32.8521 91.6009 30.0658C91.6009 27.1074 93.5857 24.9704 96.5622 24.9704ZM96.5622 33.7098C98.6612 33.7098 99.5956 31.8024 99.5956 30.0658C99.5956 28.2151 98.4703 26.4212 96.5622 26.4212C94.6342 26.4212 93.5084 28.2151 93.5084 30.0658C93.509 31.8018 94.4446 33.7098 96.5622 33.7098ZM103.49 25.1993H105.227V26.745H105.265C105.799 25.6384 107.097 24.9704 108.451 24.9704C110.97 24.9704 112.096 26.5348 112.096 29.1489V34.9311H110.302V29.8937C110.302 27.6232 109.806 26.516 108.241 26.4206C106.2 26.4206 105.284 28.0617 105.284 30.4276V34.9311H103.49L103.49 25.1993ZM115.188 25.8855C116.086 25.3515 117.154 24.9698 118.394 24.9698C121.18 24.9698 122.306 26.3433 122.306 28.9955V33.0225C122.306 34.129 122.344 34.6448 122.382 34.9305H120.703V33.6712H120.665C120.245 34.2625 119.292 35.1595 117.651 35.1595C115.551 35.1595 114.082 34.2438 114.082 32.1255C114.082 29.6829 116.754 28.9194 118.604 28.9194C119.311 28.9194 119.806 28.9194 120.513 28.9581C120.513 27.2783 119.901 26.42 118.108 26.42C117.096 26.42 116.009 26.8018 115.284 27.4124L115.188 25.8855ZM120.512 30.2941C120.131 30.2941 119.749 30.2561 119.367 30.2561C118.394 30.2561 115.99 30.4089 115.99 32.1261C115.99 33.1559 116.983 33.7098 117.802 33.7098C119.577 33.7098 120.512 32.6033 120.512 31.1536L120.512 30.2941ZM125.15 20.6203H126.944V34.9311H125.15V20.6203ZM129.806 20.6203H131.6V26.5348H131.638C132.192 25.6384 133.165 24.9704 134.864 24.9704C137.688 24.9704 139.061 27.2789 139.061 29.8937C139.061 32.5646 137.821 35.1601 134.882 35.1601C133.146 35.1601 132.039 34.2824 131.563 33.557H131.525V34.9311H129.806L129.806 20.6203ZM134.483 26.4206C132.536 26.4206 131.601 28.2707 131.601 30.084C131.601 31.7063 132.441 33.7092 134.463 33.7092C136.39 33.7092 137.193 31.5535 137.154 30.0266C137.192 28.2713 136.428 26.4206 134.483 26.4206ZM141.505 25.8855C142.402 25.3515 143.471 24.9698 144.711 24.9698C147.497 24.9698 148.623 26.3433 148.623 28.9955V33.0225C148.623 34.129 148.662 34.6448 148.7 34.9305H147.02V33.6712H146.982C146.564 34.2625 145.608 35.1595 143.967 35.1595C141.868 35.1595 140.398 34.2438 140.398 32.1255C140.398 29.6829 143.071 28.9194 144.922 28.9194C145.628 28.9194 146.123 28.9194 146.83 28.9581C146.83 27.2783 146.219 26.42 144.426 26.42C143.415 26.42 142.326 26.8018 141.6 27.4124L141.505 25.8855ZM146.829 30.2941C146.447 30.2941 146.066 30.2561 145.684 30.2561C144.711 30.2561 142.306 30.4089 142.306 32.1261C142.306 33.1559 143.299 33.7098 144.12 33.7098C145.894 33.7098 146.829 32.6033 146.829 31.1536V30.2941ZM151.238 25.1993H152.974V26.745H153.012C153.547 25.6384 154.844 24.9704 156.2 24.9704C158.719 24.9704 159.844 26.5348 159.844 29.1489V34.9311H158.051V29.8937C158.051 27.6232 157.553 26.516 155.99 26.4206C153.947 26.4206 153.032 28.0617 153.032 30.4276V34.9311H151.238V25.1993ZM162.477 20.6203H164.272V29.1489L168.183 25.1993H170.627L166.105 29.5113L171.199 34.9317H168.624L164.273 29.9329V34.9317H162.477L162.477 20.6203Z" fill="#003CB4"></path>
  <path d="M182.734 40V0H184.357V40H182.734Z" fill="#003CB4"></path>
  <path d="M200.994 35.141C199.353 35.141 198.1 34.6864 197.235 33.7768C196.37 32.8675 195.938 31.5668 195.938 29.8749C195.938 28.9084 196.128 28.0528 196.51 27.3087C196.891 26.5646 197.429 25.9859 198.122 25.5724C198.815 25.1592 199.607 24.9523 200.498 24.9523C203.36 24.9523 204.791 26.784 204.791 30.4473H197.845C197.845 31.0835 197.995 31.6464 198.294 32.1359C198.593 32.6257 198.984 33.0073 199.467 33.2807C199.951 33.5544 200.479 33.6909 201.051 33.6909C201.547 33.6909 202.091 33.5926 202.682 33.3952C203.274 33.1981 203.728 32.9724 204.046 32.7179V34.5114C203.41 34.766 202.864 34.9341 202.406 35.017C201.948 35.0996 201.477 35.141 200.994 35.141ZM200.44 26.4024C199.728 26.4024 199.143 26.6442 198.685 27.1274C198.227 27.611 197.947 28.2722 197.845 29.1117H202.883C202.87 28.3104 202.647 27.6587 202.215 27.156C201.782 26.6537 201.191 26.4024 200.44 26.4024ZM210.61 21.5942C213.726 21.5942 215.285 22.7137 215.285 24.9523C215.285 25.7537 215.071 26.4214 214.645 26.9557C214.219 27.4899 213.516 27.8781 212.537 28.1196V28.1577C213.529 28.2469 214.292 28.587 214.827 29.1785C215.361 29.77 215.628 30.4983 215.628 31.3632C215.628 32.5589 215.211 33.4495 214.378 34.0344C213.545 34.6196 212.289 34.9121 210.61 34.9121H207.004V21.5942H210.61ZM213.377 25.1431C213.377 24.4819 213.154 23.9858 212.709 23.6548C212.263 23.3242 211.653 23.1588 210.877 23.1588H208.912V27.2801H210.171C211.278 27.2801 212.089 27.1274 212.604 26.8221C213.119 26.5169 213.377 25.9573 213.377 25.1431ZM213.606 31.1914C213.606 30.4157 213.338 29.8305 212.804 29.4361C212.27 29.042 211.411 28.8446 210.228 28.8446H208.912V33.3475H210.419C211.488 33.3475 212.286 33.1758 212.814 32.8323C213.341 32.4889 213.606 31.9421 213.606 31.1914ZM223.985 33.6528C223.641 34.1363 223.209 34.5051 222.688 34.7594C222.166 35.0137 221.587 35.141 220.951 35.141C219.819 35.141 218.945 34.8805 218.328 34.3587C217.711 33.8373 217.402 33.0869 217.402 32.1073C217.402 31.1026 217.832 30.3171 218.69 29.7509C219.549 29.1851 220.671 28.9019 222.058 28.9019C222.707 28.9019 223.298 28.9147 223.832 28.94C223.832 28.0498 223.644 27.4041 223.269 27.0034C222.894 26.6027 222.28 26.4024 221.428 26.4024C220.932 26.4024 220.433 26.4882 219.93 26.6599C219.428 26.8317 218.986 27.0767 218.604 27.3945L218.509 25.8681C219.539 25.2576 220.608 24.9523 221.714 24.9523C223.05 24.9523 224.036 25.2767 224.672 25.9254C225.308 26.5741 225.626 27.5853 225.626 28.9591V33.233C225.626 33.9455 225.651 34.5051 225.702 34.9121H224.023V33.6528H223.985ZM222.668 30.2374C221.625 30.2374 220.805 30.3966 220.207 30.7145C219.609 31.0326 219.31 31.4967 219.31 32.1073C219.31 32.5652 219.492 32.9438 219.854 33.2426C220.217 33.5416 220.646 33.6909 221.142 33.6909C221.969 33.6909 222.624 33.4557 223.107 32.985C223.59 32.5145 223.832 31.8974 223.832 31.1342V30.2756C223.743 30.2756 223.584 30.2694 223.355 30.2565C223.126 30.244 222.897 30.2374 222.668 30.2374ZM232.895 26.4024C231.967 26.4024 231.254 26.7586 230.758 27.4709C230.262 28.1834 230.014 29.1564 230.014 30.3901V34.9121H228.221V25.1813H229.957V26.7267H229.995C230.288 26.1671 230.72 25.7316 231.293 25.4197C231.865 25.1082 232.495 24.9523 233.181 24.9523C234.39 24.9523 235.299 25.3086 235.91 26.0208C236.52 26.7333 236.826 27.7571 236.826 29.0927V34.9121H235.032V29.646C235.032 28.4505 234.844 27.611 234.469 27.1274C234.094 26.6442 233.569 26.4024 232.895 26.4024ZM241.252 34.9121H239.459V20.6021H241.252V29.1308L245.164 25.1813H247.606L243.084 29.4933L248.178 34.9121H245.602L241.252 29.9131V34.9121ZM251.822 20.9837V23.0061H249.8V20.9837H251.822ZM251.708 25.1813V34.9121H249.914V25.1813H251.708ZM259.073 26.4024C258.144 26.4024 257.432 26.7586 256.936 27.4709C256.44 28.1834 256.192 29.1564 256.192 30.3901V34.9121H254.398V25.1813H256.135V26.7267H256.173C256.465 26.1671 256.898 25.7316 257.47 25.4197C258.043 25.1082 258.672 24.9523 259.359 24.9523C260.567 24.9523 261.477 25.3086 262.088 26.0208C262.698 26.7333 263.003 27.7571 263.003 29.0927V34.9121H261.21V29.646C261.21 28.4505 261.022 27.611 260.647 27.1274C260.272 26.6442 259.747 26.4024 259.073 26.4024ZM269.128 34.9121C268.237 34.9121 267.477 34.6926 266.848 34.2538C266.218 33.8149 265.747 33.233 265.436 32.508C265.124 31.7829 264.968 30.9881 264.968 30.123C264.968 29.2199 265.14 28.3742 265.484 27.5853C265.827 26.7968 266.326 26.1609 266.981 25.6773C267.636 25.1941 268.415 24.9523 269.319 24.9523C270.896 24.9523 271.964 25.5122 272.524 26.6313H272.562V25.1813H274.222V34.5114C274.222 36.025 273.809 37.176 272.982 37.9649C272.155 38.7534 270.896 39.1478 269.204 39.1478C268.606 39.1478 268.056 39.0968 267.554 38.9952C267.051 38.8932 266.438 38.7215 265.713 38.48L265.903 36.8201C266.628 37.1635 267.242 37.3955 267.745 37.5165C268.247 37.6372 268.797 37.6977 269.395 37.6977C270.349 37.6977 271.093 37.3987 271.627 36.801C272.162 36.2029 272.429 35.389 272.429 34.3587V33.4047H272.391C272.021 33.8883 271.548 34.2604 270.969 34.5209C270.39 34.7818 269.777 34.9121 269.128 34.9121ZM272.429 30.1421C272.429 29.0736 272.181 28.1834 271.685 27.4709C271.189 26.7586 270.489 26.4024 269.586 26.4024C269.026 26.4024 268.543 26.5774 268.136 26.9271C267.729 27.2771 267.417 27.7284 267.201 28.2818C266.984 28.8351 266.876 29.417 266.876 30.0276C266.876 30.6638 266.991 31.2424 267.22 31.7638C267.449 32.2856 267.767 32.6988 268.174 33.004C268.581 33.3093 269.052 33.462 269.586 33.462C270.107 33.462 270.584 33.3189 271.017 33.0327C271.449 32.7465 271.793 32.3523 272.047 31.8497C272.301 31.3474 272.429 30.7782 272.429 30.1421Z" fill="#003CB4"></path>
</svg>