<!DOCTYPE svg PUBLIC "-//W3C//DTD SVG 1.1//EN" "http://www.w3.org/Graphics/SVG/1.1/DTD/svg11.dtd">
<!-- Uploaded to: SVG Repo, www.svgrepo.com, Transformed by: SVG Repo Mixer Tools -->
<svg width="800px" height="800px" viewBox="0 0 64 64" xmlns="http://www.w3.org/2000/svg" xmlns:xlink="http://www.w3.org/1999/xlink" aria-hidden="true" role="img" class="iconify iconify--emojione" preserveAspectRatio="xMidYMid meet" fill="#000000">
<g id="SVGRepo_bgCarrier" stroke-width="0"/>
<g id="SVGRepo_tracerCarrier" stroke-linecap="round" stroke-linejoin="round"/>
<g id="SVGRepo_iconCarrier">
<path d="M62 32S51.9 52 32 52S2 32 2 32s10.1-20 30-20s30 20 30 20" fill="#4b5eec"/>
<path d="M57 32s-8.4 16.7-25 16.7S7 32 7 32s8.4-16.7 25-16.7S57 32 57 32z" fill="#fafafa"/>
<path d="M45.4 32c0 7.5-6 13.5-13.5 13.5s-13.5-6-13.5-13.5s6-13.5 13.5-13.5s13.5 6 13.5 13.5" fill="#65d7e6"/>
<path d="M39.4 32c0 4.1-3.4 7.5-7.5 7.5s-7.5-3.4-7.5-7.5s3.4-7.5 7.5-7.5s7.5 3.4 7.5 7.5" fill="#4b5eec"/>
</g>
</svg>