<svg xmlns="http://www.w3.org/2000/svg" width="660" height="660" viewBox="0 0 660 660">
  <g id="Layer1">
    <path d="M19.85,113.55S80,54.61,122.36,54.61,168,93,267.21,113.55Z" fill="#008cd2"/>
    <path d="M161.8,113.75s55.5-75.58,184.52-74.1c86.12,1,112,53.37,261.26,74.1Z" fill="#00bec8"/>
    <g>
      <g>
        <path d="M396.51,42.82c-.23-1.14-1.49-3.72,1.07-5.8,1.85-1.49.69-4.37,2.34-4.36s2.58,1.22,1.73,4.06c-.54,1.83,2.62,3.05,1.41,6.22-.64,1.68-.27,2.44.33,3.21a4.77,4.77,0,0,1,.32,4.63c-.9,2.44,1.3,3,1.54,5.48.47,4.8-5.78,8.09-5.78,8.09s-5.1-3.23-5.65-6.63,2.94-3.38,1.53-5.7a7,7,0,0,1-.62-6.1C395.15,45.24,396.65,43.55,396.51,42.82Z" fill="#008cd2"/>
        <path d="M399.12,64.12c0,5.35-.09,9.59-.16,10.27l1,0c-.08-.5-.16-4.78-.23-10.25A.6.6,0,0,1,399.12,64.12Z" fill="#008cd2"/>
      </g>
      <g>
        <path d="M413,51.94c1-2.93-.53-4.88-2-4a3.37,3.37,0,0,0-1.35-3.23,2.41,2.41,0,0,0-2.29,0,4.91,4.91,0,0,0-2,2.69c-1.54-.49-2.77,2.14-1.79,4.5-.88.08-4.09,2.63-1,8.48-2.78.74.35,6.44,3.84,7.25a6.21,6.21,0,0,0,3.12-.14c3.14-.69,6.49-5.86,4.15-6.63C415.79,55.81,414.48,51.84,413,51.94Z" fill="#1964dc"/>
        <path d="M407.4,68.16v0Z" fill="#0f66b0"/>
        <path d="M407.4,67.73c0,4.46-.09,8.12-.09,8.14l.86,0s-.07-3.69-.15-8.13A4.28,4.28,0,0,1,407.4,67.73Z" fill="#1964dc"/>
      </g>
    </g>
    <g>
      <g>
        <rect x="298.3" y="29.26" width="31.76" height="31.76" fill="#1964dc"/>
        <polygon points="314.18 20 298.3 29.26 330.06 29.26 314.18 20" fill="#003cb4"/>
      </g>
      <rect x="302.62" y="35.28" width="6.47" height="9.13" fill="#82bef5"/>
      <g>
        <rect x="302.62" y="48.19" width="6.47" height="9.13" fill="#82bef5"/>
        <rect x="312.47" y="48.19" width="6.47" height="12.99" fill="#82bef5"/>
      </g>
    </g>
    <path d="M278.38,62.22c.12,0,13.64,0,13.64,0s-.47-6.22-1.39-8.46c-.42-1-1.78-2.55-3.94.85,0,0,.5-5.64-2.05-4.48-2.36,1.07-2.47,6.14-2.47,6.14s0-6.25-2.2-4.52C277.22,53.92,278.38,62.22,278.38,62.22Z" fill="#008cd2"/>
    <path d="M276.2,62.36h33s-5-4.92-10.13-2.13c-2,1.08-1.76-4.32-7.36-4.09-2.87.12-3.21,4.28-5.42,4-1.12-.27-1.34-2.3-2.89-2.53C282.3,57.48,279.06,57.76,276.2,62.36Z" fill="#003cb4"/>
    <g>
      <g>
        <path d="M298.74,273.86s7.7,7.75-10.42,8.64-10.45-8-10.45-8l1.66-19,17.8-.54Z" fill="#eba380"/>
        <g>
          <path d="M307.13,215.24a3.4,3.4,0,0,0-3.51-1.77s3.15-3.55,1.05-5.65-6.46.92-6.46.92,3.25-3.68-1.6-5.32-14.89,4.86-19.15,7.88A16.29,16.29,0,0,0,273,216c-1.36,1.07-3,3.21-3.58,7.41-1.07,7.67,2.81,16.26,2.81,16.26l.44,0c0-.61,0-1.17-.05-1.68-.11-4.79,1.46-13.42,5.5-15s7.27-.06,9.83,0,5.87-1.53,9.82,0,5.62,10.19,5.51,15c0,.73,0,1.58-.09,2.5l.89-1.86a36.53,36.53,0,0,0,2-20.24C307.16,217.51,307.72,216.41,307.13,215.24Z" fill="#000078"/>
          <path d="M305.87,238.16a2.45,2.45,0,0,0-2.57-1.07c-.1-4.9-1.72-12.55-5.51-14-4-1.53-7.27-.06-9.82,0s-5.87-1.53-9.83,0c-3.78,1.46-5.4,9.11-5.5,14a2.44,2.44,0,0,0-2.57,1.07c-1.49,2-.5,9.5,3.25,9.5h0c.44,3.29,1.13,6.36,2.23,7.88,2.25,3.12,7.86,8.63,10.11,8.84a16.87,16.87,0,0,0,4.6,0c2.24-.21,7.86-5.72,10.11-8.84,1.1-1.52,1.79-4.59,2.23-7.88h0C306.36,247.66,307.36,240.16,305.87,238.16Z" fill="#eba380"/>
          <path d="M292.57,253.32c-.23-.08-.5-.16-.79-.23l-.28-.07c-.89-.21-2.05-.65-2.61-.43a3.67,3.67,0,0,1-.92.33h0a3.54,3.54,0,0,1-.92-.33c-.56-.22-1.72.22-2.62.43-.28.07-.55.14-.8.22l-.5.17s.24.28.6.67a9.3,9.3,0,0,0,2.46,2.09,8.88,8.88,0,0,0,3.33,0,9.83,9.83,0,0,0,2.68-2.07c.37-.36.64-.63.68-.69h0Z" fill="#e39374"/>
          <path d="M284.79,234.48s-6.24-.36-7.43-.2a3,3,0,0,0-2.64,2.3c-.1.25,8.14.72,9.32.24S284.79,234.48,284.79,234.48Z" fill="#000078"/>
          <circle cx="280.8" cy="240.84" r="1.97" fill="#000078"/>
          <circle cx="295.07" cy="240.84" r="1.97" fill="#000078"/>
          <path d="M291.15,234.48s6.24-.36,7.43-.2a3,3,0,0,1,2.64,2.3c.1.25-8.15.72-9.32.24S291.15,234.48,291.15,234.48Z" fill="#000078"/>
        </g>
      </g>
      <path d="M401.51,297.26a37.25,37.25,0,0,1-19,5.8c4.23-9.79,9.17-22.44,1.69-30.69-8.86-9.77-32,6.36-35.72,11.84a39.73,39.73,0,0,1-6.61,8.48c-3.39,1.29-12.06.51-18.36-20.76-1.43-4.82-6.44-18.78.88-27.49,3.69-4.39,11.35-10.37,11.5-17.59.09-4.49.29-8.88,3.47-12.47a19.23,19.23,0,0,1,15-6.69c9.24.38,21.64,2.82,27,11.24,3,4.72,4.05,10.44,5.51,15.52a13.06,13.06,0,0,0,1.35,3.09,35.45,35.45,0,0,0,10.66,8.87C430.79,264.49,408.46,293,401.51,297.26Z" fill="#000078"/>
      <path d="M368.62,214.38c-.87,9.84,6.08,18.5,15.51,19.33s17.78-6.48,18.64-16.32-6.08-18.49-15.51-19.33-17.77,6.48-18.64,16.32" fill="#000078"/>
      <path d="M336,242.26a12.18,12.18,0,0,0,2.17-2.7c2-3.64-.37-6.28.43-11.64a16.3,16.3,0,0,1,2.45-6c.26,2,1.75,4.22,6,6.39a25.1,25.1,0,0,1,9.36,7.95s0-.19.09-.49h0s.56-3.16,2.7-4.45a3.07,3.07,0,0,1,.31-.17,4,4,0,0,1,2.43-.31c3.2.52,5.3,5.08,3.69,9.76a4.11,4.11,0,0,1-4.54,3.07s.56,6.77-2.62,9a38,38,0,0,1-5,2.64c-3.75,1.72-7.35,3.13-7.35,3.13-2.73.87-3.69-.25-4.21-1.37a4.11,4.11,0,0,1-.34-2.19l-.08-1.6s-.13.07-1.4-.38c-1.46-.53,1.34-2.92,1.34-2.92-1.78,0-4-.93-3-2.1a1.6,1.6,0,0,0,0-2.17C334.42,244.43,336,242.26,336,242.26Z" fill="#ffcdb8"/>
      <path d="M366.08,238.87s-3.09,24.54,12.58,26.3c.17,0,.68,1.56.81,1.61l.13.19s-17.67,19.66-22.27,14.94c-1.36-1.4-1.06-5.76.53-12.35.78-3.45-4.13-19.67-4.13-19.7S358.94,242.85,366.08,238.87Z" fill="#ffcdb8"/>
      <g>
        <g id="leg">
          <path d="M403.25,401.49s-4.76,32.75-6.41,75.17c-1.45,37.19,6.41,37.37-.3,89.69H383.76c-.56-34.38-2.33-34.28-16.28-173.78C367.48,392.57,395.44,381.94,403.25,401.49Z" fill="#003cb4"/>
          <polygon points="395.43 587.29 385.84 591.2 383.76 566.35 396.54 566.35 395.43 587.29" fill="#ffcdb8"/>
        </g>
        <path d="M368.21,398.82s-14.73,78-15.58,86.09,6.28,26.61-3.55,82.91l-13.1.65c-.67-24.31-1.82-67-2-76.85-.23-14-2.85-88.39-2.85-88.39S360.19,379.35,368.21,398.82Z" fill="#003cb4"/>
        <polygon points="332.92 591.2 345.62 593.05 349.08 567.82 335.98 568.48 332.92 591.2" fill="#ffcdb8"/>
        <path d="M396.54,582.41a10.34,10.34,0,0,0-6.18-1.75,11,11,0,0,0-5.67,1.72l-4.29,16.87.09,3.29s0,.09.06.28a24.75,24.75,0,0,0,10.31,1.64c4.57-.13,8.57-1.15,10.86-2.59l-.09-3.21Z" fill="#000078"/>
        <path d="M351.27,601.17s-.42-14.4-3.76-15.92-4.14,5.76-7.37,4.62-4.22-6.14-7.26-5.88-12.69,9.45-20.62,10.46-11.64,1.29-11.61,3.57,27,9.06,50.62,3.15" fill="#000078"/>
        <g>
          <path d="M314.69,428a16.85,16.85,0,0,1,.9-3.23,9.6,9.6,0,0,1,.22-2.65c.52-1.47,2.1-11.07,2.1-11.07l.2-7.92,12.46-1-3.82,11.12s2.19,9,2.26,12.07c.05,2.09-.91,6.26-1.37,8.32-.32,1.42-1.16,5.45-3,4.9-1.36-.41,0-6.1,0-6.1l-1-4-2.28.63a23,23,0,0,0-1.43,2.67c-.28.87-.43,5.87,0,7s3.05,4.7,3.45,5.88c.53.92.63,2.9-.08,2.77s-4.56-4.35-6.22-7.61a4.7,4.7,0,0,1-1.23-1.28C315.39,437.67,314.67,429.12,314.69,428Z" fill="#ffcdb8"/>
          <path d="M388.64,387.36l17.18,12.34s23.53-17.38,28.7-39.5-11.11-62-37.46-86.06c-17.41,4.8-5.79,71-5.79,71Z" fill="#00bfca"/>
        </g>
        <path d="M396.7,273.87c-5.39-5-12.44-6.69-17.47-8.6l-4.14-1-17.53,17.46s.13-10.31.43-12.55l-4.45,1.92c-5.64,2.35-7,4.65-11.35,7.93l-.11,0c-10.58,8.21-14.76,58.81-17.37,77.17-4.71,33.08-12.07,61.49-12.07,61.49l13.76,2.23.84.18,0,0,4.61.74s1.54,10,18.63,10.25,36.09-28.44,36.09-28.44c6.83.27,10.2,5.31,12.54,8.47,2.9,3.92,4.39,6.14,10.86,6.75C410,417.75,435.41,306.86,396.7,273.87Z" fill="#00bfca"/>
      </g>
      <path d="M317.2,346.1c21.06,25.74,34.67,2.58,31.08-9.88S333.62,294.41,327,287c-3.85-6.28-22.75-13.34-27.8-12.81,0,0-.05,6.08-5.76,6.72-14.53,1.62-15.86-8.08-15.86-8.08-12.49,2.31-30.47,10.89-35.13,21.78A149.6,149.6,0,0,0,232.68,330c-1.24,10.33-2.29,30.8,8.26,34.3Z" fill="#003cb4"/>
      <g>
        <g>
          <path d="M452,422.72c.27-4.64,4.37-7.11,40.16-9.84s59.56-6,62.29-5.47,7.38,11.31,7.38,14.95S460.47,432.09,452,422.72Z" fill="#003cb4" fill-rule="evenodd"/>
          <rect x="484.61" y="569.95" width="117.01" height="8.49" fill="#000078"/>
          <path d="M488.32,467a7.54,7.54,0,0,0,7.5,7.16H598.54a7.55,7.55,0,0,0,7.51-7.16H618.8a10.51,10.51,0,0,0,10.48-10.48h0A10.51,10.51,0,0,0,618.8,446H475.56a10.52,10.52,0,0,0-10.48,10.49h0A10.52,10.52,0,0,0,475.56,467Z" fill="#000078" fill-rule="evenodd"/>
          <path d="M636.65,405c-2.19-5.75-.28-14.23-1.37-17.78l-82.23,35.19c-33.53,0-67,.1-101.36.36,0,0,6,26,6.83,27.36s1.91,4.1,13.93,4.1H618.89c12,0,13.14-2.72,13.93-4.1s6.83-27.36,6.83-27.36C641,416.71,638.83,410.69,636.65,405Z" fill="#1964dc" fill-rule="evenodd"/>
          <g>
            <path d="M484.45,538.5a35.69,35.69,0,1,1-35.65,35.69,35.67,35.67,0,0,1,35.65-35.69Zm-28.38,35.69a28.38,28.38,0,1,0,28.38-28.4A28.4,28.4,0,0,0,456.07,574.19Z" fill="#000078" fill-rule="evenodd"/>
            <path d="M484.45,582.93a8.74,8.74,0,1,1,8.72-8.74A8.75,8.75,0,0,1,484.45,582.93Z" fill="#000078" fill-rule="evenodd"/>
          </g>
          <g>
            <path d="M603.75,538.5a35.69,35.69,0,1,1-35.64,35.69,35.67,35.67,0,0,1,35.64-35.69Zm-28.37,35.69a28.37,28.37,0,1,0,28.37-28.4A28.39,28.39,0,0,0,575.38,574.19Z" fill="#000078" fill-rule="evenodd"/>
            <path d="M603.75,582.93a8.74,8.74,0,1,1,8.73-8.74A8.75,8.75,0,0,1,603.75,582.93Z" fill="#000078" fill-rule="evenodd"/>
          </g>
        </g>
        <path d="M553.05,422.36s55.16-77.12,57.76-74.25a14.05,14.05,0,0,1,1.3,1.08l0,0c-7.36-7.19-36.33-6.56-42.71-7.88s-25.47-7.23-33.51-6.18C537.42,349.26,553.05,422.36,553.05,422.36Z" fill="#1964dc" fill-rule="evenodd"/>
        <path d="M635.56,387.17c-1.37-6.28-9.71-18.88-14.31-23.33s-4.29-11.22-10.44-15.73c-2.6-2.87-57.76,74.25-57.76,74.25Z" fill="#003cb4" fill-rule="evenodd"/>
      </g>
      <path d="M408.08,374.17s-11.06.29-11.95,1.43c-.58.74-5.35,5.79-4.79,8.41.4,1.87,3.34,4.1,5.59,5.7,1,.72,2,1.92,2.87,1.63,1.58-2.25-4.4-6.52-3.48-8,1.79-2.84,1.16-2.19,1.31-2.46.23-.46,2.16-.32,3.92.56,1.49.74.63,6.48,3,8.22.76.56,2.43-4.3,2.43-4.3,3.63-.22,10-9.65,9.33-9.62Z" fill="#ffcdb8"/>
      <polygon points="407.33 374.92 412.07 366.87 419.85 373.01 412.19 381.46 407.33 374.92" fill="#ffcdb8"/>
      <path d="M603.6,463.21H590.44l-47.3,39.93c-44.59-39.68-89.24-79.9-133.75-119-14.69-12.89-19.18-3.67-5.08,8.71l132.09,116L495,543.78l5.27,6.66,42.58-36,43,37.75,5.39-6.55q-20.82-18.29-41.69-36.85Z" fill="#000078" fill-rule="evenodd"/>
      <polygon points="269.19 608.56 255.68 604.87 256 587.54 270.3 587.54 269.19 608.56" fill="#eba380"/>
      <polygon points="309.21 605.02 317.76 612.81 323.58 601.91 323.58 588.3 309.21 587.74 309.21 605.02" fill="#eba380"/>
      <path d="M249.11,410.44s1.51,52.21,3.28,99.56c2.56,39.83,1.48,73.41,1.49,78.86,5.41.74,17.63.71,17.63.71.17-10.36,3.6-43.8,8-77.56,6.45-49.58,18.8-129.22,18.8-129.22S257.33,389.86,249.11,410.44Z" fill="#000078"/>
      <path d="M303.36,350.75s6.7-8.21,7.23-8.15,2.48,1.63-1.33,8.3" fill="#eba380"/>
      <path d="M294,356.5s-35.56-17.74-32.45-39.2c2.42-16.68-15.39-18.58-15.39-18.58s-20.39,46.55-15,57.89C239,373.26,293,375.33,293,375.33Z" fill="#003cb4"/>
      <ellipse cx="343.35" cy="236.1" rx="1.44" ry="1.72" transform="translate(-24.14 39.68) rotate(-6.39)" fill="#000078"/>
      <path d="M340.83,231.51s3.42-.39,4.23-.32a2,2,0,0,1,1.85,1.47,19.64,19.64,0,0,1-5.5.4C340.6,232.77,340.83,231.51,340.83,231.51Z" fill="#000078"/>
      <path d="M279.14,384.77s19,111.78,19.86,120.3,3.68,44.76,9.95,86.73c0,0,8.48,1.29,15.32,0,.52-16,2.24-70.69,2.41-81.1.23-14.76-3.36-110.56-3.36-110.56S287.59,364.28,279.14,384.77Z" fill="#000078"/>
      <path d="M248.51,301.83c-8.9,22.14-3.37,111-3.37,111l84.46-7.26c1.55-32.69,2.84-116.34-10.81-127.25-7.88-6.29-15.32,8.15-24.42,7.8C288,285.88,261.41,269.72,248.51,301.83Z" fill="#003cb4"/>
      <g>
        <g>
          <path d="M356,616.07c-2.82,2.61-50.46.88-52.15-.11l-.1-.1c0,1.56.09,2.65.46,2.87,1.66,1,48.58,2.71,51.36.09a4.1,4.1,0,0,0,.61-3Z" fill="#ebebeb"/>
          <path d="M356,616.07l.18-.24c-.13-2.19-.91-4.73-1.53-4.91-18-5.45-29.09-13.86-29.09-13.86s-1.71.35-4.41,2.83l-1.13.88s-3,2.67-5.8,2.35-4.78-4.66-7.43-4c-.81.2-2.92,11.31-3,16.73l.1.1C305.54,617,353.18,618.68,356,616.07Z" fill="#82bef5"/>
        </g>
        <g>
          <path d="M250.53,614.61a.92.92,0,0,1-.06-.22v2.91s0,.11.06.32a27.74,27.74,0,0,0,11.61,2.18c5.17,0,9.72-1,12.36-2.58v-3c-2.64,1.55-7.19,2.58-12.36,2.58A27.74,27.74,0,0,1,250.53,614.61Z" fill="#ebebeb"/>
          <path d="M250.47,614.39v-.09S250.46,614.32,250.47,614.39Z" fill="#008ad0"/>
          <path d="M262.31,592.88a12.35,12.35,0,0,0-6.46,1.76l-5.38,19v.8a.92.92,0,0,0,.06.22,27.74,27.74,0,0,0,11.61,2.18c5.17,0,9.72-1,12.36-2.58v-.62l-5.08-18.53A12.24,12.24,0,0,0,262.31,592.88Z" fill="#82bef5"/>
        </g>
      </g>
      <g>
        <path d="M320.91,282.46a2.39,2.39,0,0,0-2.44,0c-.79-3.67-2.15-12.62,1.72-18.22-.14,0-.69-.08-.83-.06-1.5.23-6.55,1.16-9.43,4-3.39,3.29-2.29,7.3-5.43,8.48a3,3,0,0,1-1.33.21s-2.52-.31-.76,2.86a2.11,2.11,0,0,1-1.5,1.36c-1.28.25-1.1,1.75.53,2.8,0,0-2.76.51-2,1.65.64,1,.62,1,.64,1s-.4,2.58-.57,3.08c-.34,1.06.6,2.1,3.22,3a40.54,40.54,0,0,0,5.18,1.6c-1.33,3.08-3,6.95-3,6.95l13.68,1,2.58-15.15-.12,0C322.66,285.42,322.6,283.19,320.91,282.46Z" fill="#ffcdb8"/>
        <path d="M305.69,339.79s-22.64,3.39-24.84,14.19c-1.43,7,5,11.7,5,11.7L315.49,355s-3.3-13.91-9.8-15.18" fill="#f55f69"/>
        <path d="M319.16,298.6s10.62,14,10.73,27.87-1.28,24.62-9.24,27.61c-8.53,3.22-10.08-.42-17.53-4.67-11.63-6.63-6.08-13.9-8.76-33.71-.55-4.13,9.07-18.08,13-20.25C307.4,295.45,315.62,297.71,319.16,298.6Z" fill="#f55f69"/>
        <path d="M290.74,304s-1.22-8.26-3-9.15-3.72-2.26-6.11-2.51-.82,5.06-.82,5.06l2.46,3.27.5,3.64s2.76,5.82,6.95-.31" fill="#ffcdb8"/>
        <path d="M317.05,300.37s-7.2-4.06-10.61.67c-2.17,3-6.1,6.72-9,11.34-2.53-3.36-4.64-6.72-6.68-9.79-.07-.09-6.42,2.37-6.4,3.05.63,21.21,9.81,19.91,13.22,20.29C302.42,326.47,326.93,319,317.05,300.37Z" fill="#f55f69"/>
        <path d="M285.07,364.82l16.2,16.79,3.73-3.35s-1.29-20.95-12.94-22.12S285.07,364.82,285.07,364.82Z" fill="#f55f69"/>
        <path d="M304.51,376.9c.82,2,5.1,2.63,4.63,5.84-.57,3.94-2.77.52-5.63,5.62s-6.79,2.48-6.79,2.48l1-1.62s2.77-5.56,1.6-11.38,5.2-.94,5.2-.94" fill="#f55f69"/>
        <path d="M331.9,267.71a14.18,14.18,0,0,0-8.85-4v0c-6.9-1-10.5,0-14,4.78l6.18-.08c-1.47,2.45-2.2,6.22.26,11.7h0a.05.05,0,0,1,0,0c.06.13.13.26.2.4a2.37,2.37,0,0,1-1.08,3.09,4.26,4.26,0,0,0,3.89-1.14,2.45,2.45,0,0,1,2.35,0c2,.85,1.73,3.73-.78,5.45a4,4,0,0,1-1.21.59s-2.48,3-.09,5.29,3,1.74,3,1.74-.08-2.45,1.46-2.19,8.92-.22,12.14-9.42C338.46,275.31,334.38,270,331.9,267.71Z" fill="#1964dc"/>
      </g>
      <path d="M309.26,350.9c.83,1.1,5.29,1.51,7.92.78a10.41,10.41,0,0,0,5.55-4.27,8,8,0,0,1,2-2c.84-.5,2.16-.2,1.57,1.24-1.32,3.2-4.36,9.09-6.71,10.54-6.11,3.76-27.41,11-27.28,9.89.48-3.79-2.42-5.77-1.23-7.56,1.36-2,6.86-3.63,8.07-3.93.58-1.51,4.63-5.38,4.63-5.38Z" fill="#eba380"/>
      <path d="M337.08,338.24l-2.46-5.15c0-3.32-.59-9.62-1.13-10.81-1-2.29-2.25-8.64-2.59-8.73-.64-.17-1.29.43-1.66,1.67-.19-.66-.39-1.3-.59-1.84-.81-2.18-3.87-7.87-4.82-7.58-.66.19-.74,3.67,1.09,6.34.06.3.71,2.93,1,4.43a37.18,37.18,0,0,0-2.11-4.35c-1.28-1.57-3.29-4.85-4.27-4.35-.79.65,0,3.92,2.27,6.73.39,1,1,3.27,1.41,4.95-.4-1-.78-1.92-1-2.36-.51-1.13-4.15-5.43-5.11-4.91-.77.66.21,3.37,2.68,6.07.36,1.27.69,2.45,1,3.42a13.24,13.24,0,0,1-.89-1.27c-1.13-1.31-3.89-4.63-4.53-3.92-.81.9.83,3.21,2.29,4.86.52,2.41,3.6,6.72,4.71,9.47,1,4.07,3.89,6.18,6,7.51l2.68,6.63a6.64,6.64,0,0,0,4.93-1.82A4.82,4.82,0,0,0,337.08,338.24Z" fill="#eba380"/>
      <path d="M323.78,349.85s2.26-3.71,3.29-4.34,1.79.11,1.38,1c-1,2.2-4.72,8.59-5.81,9.3a37.81,37.81,0,0,1-6.43,2.29C315.92,358.1,323.78,349.85,323.78,349.85Z" fill="#eba380"/>
    </g>
    <g>
      <g>
        <path d="M186.28,60.61c11.36-.63,7.32,25.33,23.78,34,14.63,7.72,10.34,22.4,7,31-2.32,6,1.36,10.35,7,15.51,10.48,9.53,7.75,31.6-4.92,42.7-16.35,14.34-30.72,17.58-30.72,17.58s-10.27-1.34-25.27-12.43c-13.22-9.78-19.95-21.48-19.8-34,.25-20.57,19.83-13,13.14-25.4-8.38-15.54-5.1-28,7.62-34.89C175.55,88.51,165.8,61.75,186.28,60.61Z" fill="#00bef0"/>
        <g>
          <path d="M190.78,200.74c0,.21,0,.4,0,.6C190.78,201.14,190.78,200.94,190.78,200.74Z" fill="#00bec8"/>
          <path d="M190.78,200.71c-.62-34.56-1.53-79.31-1.11-93.13l-1.74-.15c-.41,13.9-1.53,58.58-2.17,93.32A8.89,8.89,0,0,0,190.78,200.71Z" fill="#008cd2"/>
        </g>
        <path d="M188.88,133.29c-17.83-7.28-24.44-18.94-24.71-19.44l1.41-.78c.07.12,6.64,11.68,23.91,18.73Z" fill="#008cd2"/>
        <path d="M189.75,177.07l-.32-1.58c.2,0,19.44-4.14,24.82-22l1.55.47C210.14,172.75,190,177,189.75,177.07Z" fill="#008cd2"/>
        <path d="M185.76,200.75c-.43,23.48-.65,42.41-.3,44.23,0,0,4.76,1,5.66-.82.37-.72.08-19.67-.34-43.45A8.89,8.89,0,0,1,185.76,200.75Z" fill="#00bef0"/>
      </g>
      <path d="M127.32,245.5c.42.14,49.09,0,49.09,0s-1.67-22.39-5-30.46c-1.52-3.65-6.4-9.18-14.19,3.06,0,0,1.81-20.3-7.37-16.13-8.49,3.86-8.9,22.11-8.9,22.11s0-22.53-7.93-16.27C123.15,215.6,127.32,245.5,127.32,245.5Z" fill="#003cb4"/>
      <path d="M115.6,245.9H234.37s-18.18-17.69-36.5-7.67c-7.17,3.91-6.33-15.56-26.5-14.72-10.3.42-11.54,15.43-19.51,14.53-4-1-4.83-8.27-10.39-9.11C137.58,228.35,125.9,229.35,115.6,245.9Z" fill="#00bef0"/>
    </g>
    <g>
      <g>
        <path d="M482.45,104.56s-1.79,5-1.33,6.61-.88,3.47-2,4.45-.28,1.68.11,1.87a10.36,10.36,0,0,0,1,.4,5.94,5.94,0,0,1-.58,1.66c-.52.66,1.24.86,1.88.68.11.35-1.7,1-1.58,1.33a2.73,2.73,0,0,0,.82,1c.54.44.2,1.8.2,1.8s-.26,1.36,1.59,1.65,10.29.84,11.56-2.23A20.94,20.94,0,0,1,496,120a4,4,0,0,0,2.71-3.07c.41-2.4.09-5.49-3-4.75-2.18.52-2.6,4.2-2.6,4.2s-.18-2-.38-3.15c-.36-2-1.3-8.94-3.62-8.8C485.12,104.66,482.45,104.56,482.45,104.56Z" fill="#eba380"/>
        <g>
          <path d="M498.84,141.9s-16.42,28.68-21.61,29.59-9.07-9.62-9.07-9.62c7.27-4.35,13.07-28.82,21.7-25.31C502.2,141.59,498.84,141.9,498.84,141.9Z" fill="#000078"/>
          <path d="M564.07,216.54s4.76,2.27,9.07,2.14-.35,8.07-.83,8.76-10-3.17-10-3.17Z" fill="#eba380"/>
          <path d="M499.64,256.61l-.48,9.39-8.89-1.91c.78.16,1.61-6.75,1.61-6.75Z" fill="#eba380"/>
          <path d="M527.38,182.89c-5.17-3-5.42-51.43-16.07-53.5-13.13-2.56-22.2,4.07-26.26,7.82a7.15,7.15,0,0,0-2.23,6c.55,5.51,5.61,18.81,12.38,43.4C496.26,190.43,528.16,185.88,527.38,182.89Z" fill="#000078"/>
          <path d="M527.39,157.59s11.57-.43,11.57-2.93-16.36-28.34-29.27-25C499.66,132.16,527.39,157.59,527.39,157.59Z" fill="#000078"/>
          <path d="M578.07,217.09s-7.19-.85-8.19.7,2.55,2.48,1.75,4-3.37,2.77-3.47,4.3,4,8.06,3.44,12.08-.22,5.89.92,6,6.19-14,5.55-27.13" fill="#003cb4"/>
          <path d="M488.47,147.77l-3.12-11.06,2.93-2.28,4,12.44L508.45,143l-.73-14.23,4.11.42.83,13.36a6.5,6.5,0,0,1,3.35,3.18c1.1,2.36,5.65,22.16,5.65,22.16a.7.7,0,0,1,.06.09c1.08,1.72,2.11,3.5,3.08,5.28,2,3.62,4.08,9.79,5.45,13.66h0l7,20.28s10.64,1,14.85,1.77c6,1.11,15.29,3.86,15.29,3.86s-2.12,15.1-3.33,16-3-.53-7.29-1.44c-7.84-1.33-22.7-4-25.66-5.45-8.84-4.36-15.5-14.82-20-24.22-2,7-7.25,26.25-6.75,28.24.6,2.44,0,33.31,0,33.31s-13.46,1.27-14.8,0S487,223.11,486.92,222s6.76-46.52,6.76-46.52-7-24.17-6.32-26A5.65,5.65,0,0,1,488.47,147.77Z" fill="#82bef5"/>
          <path d="M451.36,163.66s-7.33,1-8.38-1.92c-.8-2.26-.33-2.53-.33-2.53s-1.44-1.73-.65-2.9c.32-.47.93-1.4,1.17-1.73s2.64.3,2.64.3-1.48-1.25-1.64-2.07c-.48-2.46,1.12,0,2.43.23a5.63,5.63,0,0,1,3.22,1.69l1.91,3.3,8.2,1.8L458.7,166S451.67,163.71,451.36,163.66Z" fill="#eba380"/>
          <path d="M474,160.3c-6.77-1-8.68-.22-19.81-2.71-.67-.15-1.32,7.66-1.32,7.66,5.44,3.26,17.05,6.77,24.36,6.24Z" fill="#000078"/>
          <path d="M489.11,123s2.07,10.79,3,13c1.44.68,10.34.1,12-6.11C503.71,128.19,497,116,497,116Z" fill="#eba380"/>
          <path d="M520,183.23a2.64,2.64,0,0,1-.65-2c.18-1.61.59-4.37,1.35-5,1.09-.91,2.65-5.21,2.65-5.21l2.32,3.78-.78,8s0,.67.46.85,2.66-.23,3-.12S528,185.57,527,186l-.52.2a4.43,4.43,0,0,1-4.91-1.18Z" fill="#eba380"/>
          <path d="M527.11,156.57c-1.92,7.39-2.79,7.74-6.61,16.9-.27.63,6.89,3.33,6.89,3.33,4.86-5.49,10.29-12.09,11.57-22.14Z" fill="#000078"/>
          <path d="M505.58,166.89c9.78-1.45,5.41-7.53,4.15-13.31l-11.88,2.94C499.15,160.32,499.59,168.23,505.58,166.89Z" fill="#000078"/>
          <path d="M486.84,98.72c2.11-1.86,4.49-3.43,6.36-5.25.25,1.37-.39,2.57.89,2.74,8.55,1.18,12,5.13,12.74,10.33a13.36,13.36,0,0,1-.28,7.13c-1.75,5.52-5.43,8.71-8.29,9.25-.41-.49-2.51-.79-.05-5.63,1.11-2.18.58-5.87-2.48-5.13a1.81,1.81,0,0,0-.46.17c-1.85,1.22-1.49,3.44-2.63,5.32a31.14,31.14,0,0,1-.36-6.26,44.21,44.21,0,0,1-9.7-4.51,27.94,27.94,0,0,0,1.2,2.68,11.93,11.93,0,0,1-2.3-2.13C479.9,104.81,486.84,98.72,486.84,98.72Z" fill="#000078"/>
          <path d="M501.16,270.94s.3-7.24-1.33-8.12-2.28,2.74-3.86,2.06-3-3.15-4.56-3.12-7.72,4.62-11.77,4.36-5.89.24-5.95,1.38,14.4,5.09,27.47,3.44" fill="#003cb4"/>
        </g>
        <path d="M483,113.8a1.06,1.06,0,1,1,.75,1.3,1.07,1.07,0,0,1-.75-1.3" fill="#000078"/>
        <path d="M482.62,110.16s2.92.64,3.45.86a1.4,1.4,0,0,1,1,1.25,21.11,21.11,0,0,1-4.34-1.08c-.49-.34-.1-1-.1-1" fill="#000078"/>
      </g>
      <g>
        <path d="M431.85,125.29a16.32,16.32,0,1,0-6-22.29h0A16.33,16.33,0,0,0,431.85,125.29Zm1.83-18.57c4.47-7.73,11-11.5,14-9.77s2.94,10.54-1.53,18.28-11.65,11.44-14.63,9.72S429.22,114.45,433.68,106.72Z" fill="#c396ff"/>
        <path d="M431.53,125c3,1.72,10.17-2,14.63-9.72s4.52-16.56,1.53-18.28-9.54,2-14,9.77S428.54,123.23,431.53,125Z" fill="#8c50c8"/>
      </g>
    </g>
  </g>
</svg>
