<svg xmlns="http://www.w3.org/2000/svg" width="660" height="660" viewBox="0 0 660 660">
  <g id="Layer_5" data-name="Layer 5">
    <g>
      <path d="M420.2,375.16a23.15,23.15,0,0,1-23.12,23.19H102.22A23.15,23.15,0,0,1,79.1,375.16V218.58a23.16,23.16,0,0,1,23.12-23.19H397.08a23.16,23.16,0,0,1,23.12,23.19Z" fill="#1964dc"/>
      <polygon points="74.13 513.56 67.52 513.56 67.52 431.32 89.54 431.32 74.13 513.56" fill="#1964dc"/>
      <polygon points="418.19 513.56 424.8 513.56 424.8 431.32 402.78 431.32 418.19 513.56" fill="#1964dc"/>
      <path d="M459.65,401.31a23.15,23.15,0,0,1-23.12,23.19H405.18a23.15,23.15,0,0,1-23.12-23.19V281.23A23.15,23.15,0,0,1,405.18,258h31.35a23.15,23.15,0,0,1,23.12,23.19Z" fill="#00bef0"/>
      <path d="M117.24,401.31A23.15,23.15,0,0,1,94.12,424.5H62.77a23.15,23.15,0,0,1-23.12-23.19V281.23A23.15,23.15,0,0,1,62.77,258H94.12a23.15,23.15,0,0,1,23.12,23.19Z" fill="#00bef0"/>
      <path d="M39.65,374.12v31.57a25.59,25.59,0,0,0,25.56,25.63H434.1a25.59,25.59,0,0,0,25.55-25.63V374.12Z" fill="#00bef0"/>
      <path d="M243.8,141.92s-.69,9.43,25.4-.52c0,0,50.78,14.66,60.21,52.49S351.16,268.77,348,286c-5,27.48-40.76,54.06-60.4,30.94s19.91-91.87,19.91-91.87l13.62,99.84c-70.24,27.89-129.4,2.1-129.4,2.1l13.09-105.62,21,105.88s-52.33.75-57.83-37.57C163.28,257,160.78,166.22,243.8,141.92Z" fill="#003cb4"/>
      <polygon points="268.29 142.9 254.27 183.32 238.63 144.07 241.24 112.04 265.68 112.04 268.29 142.9" fill="#eba380"/>
      <path d="M279.8,57.51c-6.91-10.6-14.73-14.59-24-15.56-.18-.05-6-.08-6.38,0-9.29,1-17.12,5-24,15.56-8.14,12.47-1.06,28.7-1.06,28.7h56.55S288,70,279.8,57.51Z" fill="#003cb4"/>
      <g>
        <path d="M228.32,85.14a4.24,4.24,0,0,0-5.78,1.25c-2.52,3.38-.84,16,5.46,16S228.32,85.14,228.32,85.14Z" fill="#eba380"/>
        <path d="M277,85.14a4.25,4.25,0,0,1,5.79,1.25c2.52,3.38.84,16-5.47,16S277,85.14,277,85.14Z" fill="#eba380"/>
      </g>
      <path d="M269.23,62.28c-6.66-2.57-12.24-.11-16.55,0-4.3-.11-9.88-2.57-16.55,0s-9.46,17.2-9.27,25.27S228,111.77,231.78,117,245,131.6,248.81,132a28.66,28.66,0,0,0,7.74,0c3.79-.35,13.25-9.65,17-14.92s4.73-21.4,4.92-29.48S276.05,64.92,269.23,62.28Z" fill="#eba380"/>
      <g>
        <ellipse cx="241.14" cy="93.04" rx="3.46" ry="3.48" fill="#000078"/>
        <ellipse cx="264.88" cy="93.04" rx="3.46" ry="3.48" fill="#000078"/>
        <path d="M259.29,83.22s8.49-.28,10.1,0a4.08,4.08,0,0,1,3.52,3.23c.12.34-11.11.7-12.69,0S259.29,83.22,259.29,83.22Z" fill="#000078"/>
        <path d="M246.1,83.26s-8.49-.33-10.11-.07a4.06,4.06,0,0,0-3.53,3.21c-.12.34,11.1.75,12.69.06S246.1,83.26,246.1,83.26Z" fill="#000078"/>
      </g>
      <path d="M258.78,112.9c-1.58-.14-3.53-1.06-4.49-.7a5.54,5.54,0,0,1-1.61.53,5.42,5.42,0,0,1-1.6-.53c-1-.36-2.91.56-4.49.7a8,8,0,0,1-2.64-.16,20.6,20.6,0,0,0,2.8,3.87,7.86,7.86,0,0,0,11.86,0,20.87,20.87,0,0,0,2.81-3.87A8,8,0,0,1,258.78,112.9Z" fill="#d0886b"/>
      <path d="M289.81,67.16c1.94-11.71-7-23-20.1-25.29a26,26,0,0,0-14.4,1.53c1.73.11,3.47.48,5.26.62C276.09,45.26,288.21,56.54,289.81,67.16Z" fill="#003cb4"/>
      <path d="M269.77,28.88c.37,11.17-6.72,18.39-17.37,18.74s-15.75-6.78-16.12-17.95,5-19.75,15.62-20.1S269.4,17.71,269.77,28.88Z" fill="#003cb4"/>
      <path d="M203.48,302.62h99.7l10.11,13s64.71-35.74,83.49,11.12S292.2,382.33,267.35,381.36c-5.72-.22-12.91-.18-21-.17-12.29,0-20.27-2.67-34.87-3.71-8.39-.6-23.29,1.11-31.45-.34a130.8,130.8,0,0,1-25.19-6.89c-24.17-9.63-60.28-41.15-32.27-63.76,19.75-15.95,71.77,9.17,71.77,9.17Z" fill="#82bef5"/>
      <polygon points="257.42 348.51 257.42 365.42 307.51 341.31 257.42 348.51" fill="#eba380"/>
      <path d="M246.35,381.43V370.25L180,377.14S224.32,381.43,246.35,381.43Z" fill="#eba380"/>
      <g>
        <g>
          <path d="M309.48,331.14H198a7.77,7.77,0,0,1-7.76-7.78V257a7.77,7.77,0,0,1,7.76-7.78H309.48a7.76,7.76,0,0,1,7.75,7.78v66.34A7.76,7.76,0,0,1,309.48,331.14Z" fill="#d9e7f0"/>
          <path d="M253.71,297.1h0a6.89,6.89,0,0,1-6.88-6.9h0a6.89,6.89,0,0,1,6.88-6.91h0a6.89,6.89,0,0,1,6.88,6.91h0A6.89,6.89,0,0,1,253.71,297.1Z" fill="#fff"/>
        </g>
        <path d="M320.08,312.73s-24.18,12.54-40.66,22.63,40.66,0,40.66,0Z" fill="#82bef5"/>
        <path d="M228.36,333.68s-33.89-17.76-42.19-20.95-2.8,27.12-2.8,27.12Z" fill="#82bef5"/>
      </g>
    </g>
    <g>
      <path d="M613.76,443.68c7.33-12.55,7-23.37,4.46-29.85-2.05-5.32-19.63-2-25.32,14.46C588.17,442,582,453.73,588.06,457.2S606.43,456.23,613.76,443.68Z" fill="#1964dc"/>
      <path d="M531.55,468c11.88,10.59,30.81,16.57,30.79,9,0-13.47-.36-18.74-12.24-29.33s-22.72-9.41-30.79-9C511.68,439,519.67,457.37,531.55,468Z" fill="#1964dc"/>
      <path d="M518.14,377.77c12.91,20.84,35.6,28.41,45.68,22.31s3.71-23.56-9.2-44.39S523.08,322.91,513,329,505.23,356.94,518.14,377.77Z" fill="#1964dc"/>
      <path d="M555.11,289.11c-3.57,24.18,7.24,51.49,18.93,53.17s19.84-22.88,23.41-47.06-11.9-44.42-23.59-46.11S558.68,264.94,555.11,289.11Z" fill="#1964dc"/>
      <path d="M592.26,344.28c-8.48,16.8-8.76,33.66-.64,37.66s21.58-6.37,30.06-23.16,4.57-27,.63-37.67C619.21,312.68,600.73,327.48,592.26,344.28Z" fill="#1964dc"/>
      <path d="M590.87,445.68a67.61,67.61,0,0,0-10.4,15.15c-.43-18.28-.93-37.89-1.46-56.35h0c1-8.6,7.31-21.83,18.36-38.29,8.39-12.47,16.59-22.48,16.67-22.58l-1-.83c-.08.1-8.32,10.16-16.73,22.68-9.18,13.65-15,24.81-17.44,33.31-.73-24.64-1.5-46.73-2.24-60.14h0c-.27-5.68-1.31-26.57-3.13-43.86l-1.32.14c2.1,20,3.17,44.81,3.19,45.26h0s1.74,27.65,2.44,63.6c0,.18-.06.37-.08.54h.09c.17,8.89.28,18.28.28,27.87-8.73-36.76-46.38-76.63-46.78-77l-1,.9c.42.44,42.46,45,47.68,83h0c-.09,16.73-.52,33.87-1.52,49.93-4.79-6.47-15.45-14.8-19.68-18.1-11.21-8.75-22.73-16.52-22.85-16.6l-.75,1.08c11,7.43,37.23,26.32,43.15,35.66-1.1,16.87-2.85,32.45-5.48,45h11.19s-.63-32.4-1.56-71.8c5-14,23.58-29.89,23.8-30.07l-.87-1A135.22,135.22,0,0,0,590.87,445.68Z" fill="#008cd2"/>
      <rect x="533.09" y="512.68" width="86.22" height="96.32" fill="#00bef0"/>
    </g>
  </g>
</svg>
