<svg height="200px" width="200px" version="1.1" id="Layer_1" xmlns="http://www.w3.org/2000/svg" xmlns:xlink="http://www.w3.org/1999/xlink" viewBox="0 0 512 512" xml:space="preserve" fill="#000000"><g id="SVGRepo_bgCarrier" stroke-width="0"></g><g id="SVGRepo_tracerCarrier" stroke-linecap="round" stroke-linejoin="round"></g><g id="SVGRepo_iconCarrier"> <path style="fill:#184ce7;" d="M53.769,4.89C47.247-1.632,36.681-1.626,30.16,4.884C14.388,20.65,5.704,41.612,5.704,63.918 c0,22.299,8.685,43.261,24.457,59.032c15.804,15.799,36.696,24.44,58.978,24.44l30.456-76.669L53.769,4.89z"></path> <path style="fill:#f5f5f4;" d="M43.965,42.308c-3.184,6.663-4.87,14.005-4.87,21.609c0,13.375,5.207,25.956,14.674,35.418 c9.717,9.707,22.663,14.875,36.381,14.658l5.837-19.663L43.965,42.308z"></path> <path style="fill:#475fe6;" d="M481.889,4.892c-6.521-6.521-17.087-6.521-23.609,0l-65.837,65.832l30.456,76.669 c22.293,0,43.185-8.642,58.989-24.446C514.432,90.397,514.432,37.435,481.889,4.892z"></path> <path style="fill:#fafafa;" d="M468.062,42.331l-52.011,52L422.877,114c13.38,0,25.913-5.185,35.403-14.669 C473.671,83.94,476.932,60.946,468.062,42.331z"></path> <path style="fill:#dddedf;" d="M289.453,0h-66.783c-42.742,0-83.701,18.365-112.196,50.198 C85.988,77.802,72.41,113.308,72.41,150.261v187.325c0,19.478,6.901,38.4,19.367,53.426l47.416,56.877v14.024 c0,27.603,22.483,50.087,50.087,50.087h133.565c27.603,0,50.087-22.483,50.087-50.087v-14.024l47.416-56.877 c12.466-15.026,19.367-33.948,19.367-53.426V150.261C439.714,67.45,372.264,0,289.453,0z"></path> <path style="fill:#d0d2d7;" d="M439.714,150.261v187.325c0,19.478-6.901,38.4-19.367,53.426l-47.416,56.877v14.024 c0,27.603-22.483,50.087-50.087,50.087h-66.783V0h33.391C372.264,0,439.714,67.45,439.714,150.261z"></path> <circle style="fill:#325cae;" cx="222.675" cy="428.522" r="16.696"></circle> <circle style="fill:#3855e5;" cx="289.458" cy="428.522" r="16.696"></circle> <circle style="fill:#325cae;" cx="155.893" cy="217.043" r="16.696"></circle> <circle style="fill:#3855e5;" cx="356.24" cy="217.043" r="16.696"></circle> <path style="fill:#184ce7;" d="M177.562,367.304c-7.032,0-13.566-4.468-15.87-11.511c-2.869-8.761,1.913-18.19,10.674-21.06 c16.782-5.484,28.403-17.619,34.543-36.059c2.902-8.75,12.359-13.495,21.109-10.565c8.75,2.918,13.478,12.369,10.565,21.12 c-9.532,28.62-28.837,48.413-55.826,57.245C181.03,367.033,179.28,367.304,177.562,367.304z"></path> <path style="fill:#475fe6;" d="M334.652,367.304c-1.717,0-3.467-0.266-5.196-0.831c-26.978-8.832-46.294-28.62-55.837-57.239 c-2.913-8.744,1.804-18.202,10.554-21.12c8.75-2.913,18.196,1.81,21.12,10.554c6.152,18.445,17.783,30.582,34.554,36.065 c8.761,2.869,13.544,12.299,10.674,21.06C348.216,362.831,341.684,367.304,334.652,367.304z"></path> <path style="fill:#DFE2EF;" d="M296.354,197.343c-12.132-118.205-21.594-130.56-40.181-130.56h-0.111 c-18.587,0-28.049,12.577-40.181,130.56c-6.01,58.769-9.795,120.654-9.795,131.005c0,27.603,22.372,49.976,49.976,50.087h0.111 c27.603,0,50.087-22.483,50.087-50.087C306.26,317.997,302.364,256.111,296.354,197.343z"></path> <path style="fill:#D5D7E5;" d="M306.26,328.348c0,27.603-22.483,50.087-50.087,50.087h-0.111V66.783h0.111 c18.587,0,28.049,12.355,40.181,130.56C302.364,256.111,306.26,317.997,306.26,328.348z"></path> </g></svg>