<svg id="design" xmlns="http://www.w3.org/2000/svg" width="660" height="660" viewBox="0 0 660 660">
  <g>
    <circle cx="218.75" cy="58.59" r="47.87" fill="#023db2"/>
    <circle cx="218.75" cy="20.14" r="2.81" fill="#82bef5"/>
    <circle cx="180.31" cy="58.59" r="2.81" fill="#82bef5"/>
    <circle cx="218.75" cy="97.03" r="2.81" fill="#82bef5"/>
    <circle cx="257.2" cy="58.59" r="2.81" fill="#82bef5"/>
    <g>
      <circle cx="191.57" cy="31.4" r="2.81" fill="#82bef5"/>
      <circle cx="191.57" cy="85.77" r="2.81" fill="#82bef5"/>
      <circle cx="245.94" cy="85.77" r="2.81" fill="#82bef5"/>
      <circle cx="245.94" cy="31.4" r="2.81" fill="#82bef5"/>
    </g>
    <polyline points="232.44 44.9 218.75 58.59 199.2 39.53" fill="none" stroke="#fff" stroke-miterlimit="10" stroke-width="2.69"/>
  </g>
  <g>
    <rect x="50.22" y="206.45" width="152.01" height="19.81" fill="#1964dc"/>
    <rect x="50.22" y="186.45" width="130.13" height="13.33" fill="#00bec8"/>
    <rect x="69.35" y="167.34" width="116.13" height="19.11" fill="#003cb4"/>
    <rect x="67.26" y="199.78" width="134.97" height="6.67" fill="#008cd2"/>
    <rect x="71.53" y="151.39" width="116.13" height="15.95" fill="#1964dc"/>
  </g>
  <g>
    <rect x="249.77" y="326.95" width="302.46" height="95.08" fill="#003cb4"/>
    <path d="M485.83,234.41H316.17a59.61,59.61,0,0,0-56.8,41.49L212,424.58H590L542.63,275.9A59.61,59.61,0,0,0,485.83,234.41Z" fill="#1964dc"/>
    <rect x="221.86" y="418.43" width="358.28" height="101.16" fill="#00bef0"/>
    <path d="M243.07,519.59H217.51A35.49,35.49,0,0,1,182,484.12V339.62a35.49,35.49,0,0,1,35.51-35.47h0a35.49,35.49,0,0,1,35.11,30.15l25.56,144.5A35.49,35.49,0,0,1,243.07,519.59Z" fill="#00bef0"/>
    <path d="M558.93,519.59h25.56A35.49,35.49,0,0,0,620,484.12V339.62a35.49,35.49,0,0,0-35.51-35.47h0a35.49,35.49,0,0,0-35.11,30.15L523.82,478.8A35.49,35.49,0,0,0,558.93,519.59Z" fill="#00bef0"/>
    <path d="M543,400H259c-24.95,0-42.7,23.54-35.13,46.62h0c4.86,14.85,19.07,24.93,35.13,24.93H543c16.06,0,30.27-10.08,35.13-24.93h0C585.74,423.5,568,400,543,400Z" fill="#1964dc"/>
    <g>
      <path d="M414.73,244.12s13.55,13.6-18.34,15.17-18.38-14-18.38-14l2.91-33.45,31.33-1Z" fill="#eba380"/>
      <g>
        <g>
          <path d="M429.5,141.21c-1.92-3.84-6.17-3.11-6.17-3.11s5.54-6.23,1.84-9.92-11.37,1.62-11.37,1.62,5.72-6.46-2.82-9.34-26.2,8.53-33.7,13.83a28.71,28.71,0,0,0-7.81,8.31c-2.39,1.89-5.26,5.64-6.3,13-1.88,13.46,4.95,28.54,4.95,28.54l.78.05c0-1.06-.08-2.05-.1-3-.2-8.4,2.57-23.55,9.69-26.29,7-2.68,12.79-.12,17.29,0,4.5-.12,10.32-2.68,17.29,0,7.12,2.74,9.88,17.89,9.69,26.29,0,1.29-.08,2.78-.16,4.4l1.56-3.26s7.45-16.54,3.55-35.54C429.54,145.18,430.53,143.26,429.5,141.21Z" fill="#023db2"/>
          <path d="M427.27,181.45a4.31,4.31,0,0,0-4.51-1.89c-.18-8.6-3-22-9.69-24.59-7-2.68-12.79-.12-17.29,0-4.5-.12-10.33-2.68-17.29,0-6.66,2.56-9.51,16-9.69,24.59a4.3,4.3,0,0,0-4.51,1.89c-2.63,3.51-.88,16.66,5.71,16.66h0c.77,5.78,2,11.15,3.92,13.83,4,5.47,13.84,15.15,17.8,15.51a29.55,29.55,0,0,0,8.08,0c4-.36,13.84-10,17.8-15.51,1.93-2.68,3.15-8.05,3.92-13.83h0C428.15,198.11,429.9,185,427.27,181.45Z" fill="#eba380"/>
          <path d="M403.87,208.06c-.41-.14-.88-.28-1.39-.41l-.48-.12c-1.58-.37-3.62-1.14-4.61-.76a5.94,5.94,0,0,1-1.61.58h-.08a5.94,5.94,0,0,1-1.61-.58c-1-.38-3,.39-4.6.76-.51.12-1,.25-1.42.38l-.88.3s.43.5,1.07,1.18c1.25,1.34,3.27,3.38,4.31,3.67a15.66,15.66,0,0,0,5.87,0c1.09-.26,3.32-2.29,4.72-3.64l1.2-1.2h0Z" fill="#d0886b"/>
          <path d="M390.18,175s-11-.64-13.07-.35c-3.5.49-4.16,2.79-4.65,4.05-.17.43,14.34,1.25,16.41.41S390.18,175,390.18,175Z" fill="#000078"/>
          <circle cx="383.17" cy="186.15" r="3.47" fill="#000078"/>
          <circle cx="408.28" cy="186.15" r="3.47" fill="#000078"/>
          <path d="M401.38,175s11-.64,13.07-.35c3.5.49,4.16,2.79,4.65,4.05.17.43-14.34,1.25-16.41.41S401.38,175,401.38,175Z" fill="#000078"/>
        </g>
        <g>
          <path d="M409.58,176.16a10,10,0,0,0-10,9.49h-6.45a10,10,0,1,0,0,1h6.45a10,10,0,1,0,10-10.48Zm-26.39,19a9,9,0,1,1,9-9A9,9,0,0,1,383.19,195.14Zm26.39,0a9,9,0,1,1,9-9A9,9,0,0,1,409.58,195.14Z" fill="#fff"/>
          <ellipse cx="383.2" cy="186.15" rx="9.27" ry="9.26" fill="#fff" opacity="0.33"/>
          <ellipse cx="409.88" cy="186.15" rx="9.27" ry="9.26" fill="#fff" opacity="0.33"/>
        </g>
      </g>
      <g>
        <path d="M389.73,433.35s-15.19-4.82-49-.33c-5.66,1.71-28.78,11.26-30.33,14.81s26.19,17,40.52,16.92c15.52,1,32.36-3.05,39-6.34a8.09,8.09,0,0,0,2.65-1.82c-2.25-.09-11.66-1.26-13.33-2.88,4.73-2.84,1.93-14.44-3.45-13.41C376.49,437.77,383.78,435.31,389.73,433.35Z" fill="#000078"/>
        <polygon points="344.18 367.56 329.39 393.85 403.62 436.09 451.08 396.05 450.69 364.96 344.18 367.56" fill="#003cb4"/>
        <path d="M375.29,445.65c1.43-.39,88.18-59.37,114.65-67.74s40.32-8.36,47.45,7,2.08,36.74-12.18,43.32-137.32,23.34-137.32,23.34Z" fill="#023db2"/>
        <path d="M376.84,236.11c-1.8.8-48.42,9.91-52.81,20.07s-17.15,69.73-17.15,69.73l33.51,62s47.47,11.35,80.78,7.37,39.49-11,39.49-11l-6.58-57.38,21.54-5.18s-1.4-38.65-6.59-51.4-12.36-19.33-31.11-26.1c-18.15-6.58-21.64-8.12-21.64-8.12l-19.52,79.1Z" fill="#008cd2"/>
        <path d="M413,401.23l19.35,4-3-11.36-16.55,3.79C411.19,398.44,411.19,400.83,413,401.23Z" fill="#bebebe"/>
        <path d="M536,338.21c-4.11-1.5,1.26,22.57,1.26,22.57s1.39,5.78,4.78.4.36-5.2-.63-12.77C541,346.61,540.09,339.7,536,338.21Z" fill="#eba380"/>
        <polygon points="395.27 242.45 379.23 229.75 376.84 236.11 396.37 316.68 416.28 236.11 413.95 230.18 395.27 242.45" fill="#ebebeb"/>
        <path d="M306.88,325.91s-10.87,43.25-1,51c15.37,12.06,103,28.29,103,28.29V388.76l-66.87-32,1.21-27.71Z" fill="#008cd2"/>
        <path d="M413.59,334.28l19,70.93,99.92-38.85a8.46,8.46,0,0,0,5-10.16L519.7,294a8.13,8.13,0,0,0-10.58-5.38l-89.75,34.66A9.27,9.27,0,0,0,413.59,334.28Z" fill="#ebebeb"/>
        <ellipse cx="475.62" cy="340.51" rx="8.38" ry="8.37" fill="#bebebe"/>
        <path d="M539.84,354c2.59-1,6.18,3,3.39,7.77-2,3.78-14.56,15.14-14.56,15.14s-8.77-4.58-12.37-4.38a5.56,5.56,0,0,1,1-7.77C517.1,365,523.09,360.38,539.84,354Z" fill="#eba380"/>
        <path d="M507.73,370.14s1,3.19,10.17.8a43.51,43.51,0,0,0,16-8.37l-4.19-4.38S506.73,365.56,507.73,370.14Z" fill="#eba380"/>
        <path d="M408.88,391.84s17.54-9.51,18.67-5.27l1.31,4.88s2.7.82,8-.71c17.14-4.94,16.31-4.12,17,.44S442.8,408.94,435,408.94s-26.13-3.73-26.13-3.73Z" fill="#eba380"/>
        <polygon points="405.44 387.12 412.59 387.89 411.62 405.75 402.48 403.98 405.44 387.12" fill="#ebebeb"/>
        <path d="M415.62,432.37c-6.82-.75-16.24,2.17-16.24,2.17l-3,18.28a241.71,241.71,0,0,0,28.33,9.05S437.3,434.75,415.62,432.37Z" fill="#eba380"/>
        <path d="M280.88,372.73s-27,11.57-25.7,32.48c2.18,33.82,35.05,36.66,70.2,42.84s77,11.82,77,11.82l1.78-34.75C404.17,422,309.93,367,280.88,372.73Z" fill="#023db2"/>
        <circle cx="396.76" cy="328.89" r="2.98" fill="#000078"/>
        <circle cx="396.76" cy="359.19" r="2.98" fill="#000078"/>
        <polygon points="395.27 242.45 391.25 249.53 389.77 289.39 396.37 316.68 403.1 289.43 399.66 249.26 395.27 242.45" fill="#000078"/>
        <g>
          <path d="M408.89,432.63s12.42-5.24,44.81-1.75c10.62,1.63,37.49,11.54,39.21,15.25s-27.26,18.51-42.39,18.78c-16.36,1.42-44.51-8.22-45-8.78.79-.06,14.17.2,15.32-1-5.06-2.89-2.66-18,3-17C420,437,415.22,434.56,408.89,432.63Z" fill="#000078"/>
          <g>
            <path d="M442.36,452.77c-9.12-5.6-9-6.49-9-7.14.09-.87.17-1.69,14.06-3.78l.31,2.08c-4.48.68-9.43,1.57-11.59,2.16,1.45,1.15,4.54,3.21,7.28,4.89Z" fill="#fff"/>
            <rect x="442.06" y="449.97" width="6.35" height="4.88" transform="matrix(0.95, 0.32, -0.32, 0.95, 169.22, -119.19)" fill="#fff"/>
            <rect x="445.39" y="440.99" width="6.35" height="4.88" transform="translate(166.51 -120.74) rotate(18.77)" fill="#fff"/>
          </g>
        </g>
      </g>
    </g>
    <polygon points="234.27 600 227.78 600 227.78 519.68 249.39 519.68 234.27 600" fill="#1964dc"/>
    <polygon points="566.7 600 573.18 600 573.18 519.68 551.58 519.68 566.7 600" fill="#1964dc"/>
  </g>
</svg>
