<svg xmlns="http://www.w3.org/2000/svg" width="660" height="660" viewBox="0 0 660 660">
  <g id="Layer_2" data-name="Layer 2">
    <path d="M217.23,66.52c55.6-19.7,62.13,38.09,176.82-10,55.39-23.24,250,18.21,250,50.33H20C20,90.78,106.55,105.73,217.23,66.52Z" fill="#87dcff"/>
    <g>
      <polygon points="618.8 49.6 545.02 49.6 548.41 36.6 615.41 36.6 618.8 49.6" fill="#003cb4"/>
      <rect x="544.92" y="49.6" width="73.99" height="187.1" fill="#000078"/>
      <rect x="577.1" y="119.94" width="9.63" height="18.49" fill="#82bef5"/>
      <rect x="555.02" y="119.94" width="9.63" height="18.49" fill="#82bef5"/>
      <rect x="599.17" y="119.94" width="9.63" height="18.49" fill="#82bef5"/>
      <rect x="577.1" y="93.96" width="9.63" height="18.49" fill="#82bef5"/>
      <rect x="555.02" y="93.96" width="9.63" height="18.49" fill="#82bef5"/>
      <rect x="599.17" y="93.96" width="9.63" height="18.49" fill="#82bef5"/>
      <rect x="577.1" y="67.98" width="9.63" height="18.49" fill="#82bef5"/>
      <rect x="555.02" y="67.98" width="9.63" height="18.49" fill="#82bef5"/>
      <rect x="599.17" y="67.98" width="9.63" height="18.49" fill="#82bef5"/>
      <rect x="577.1" y="145.93" width="9.63" height="18.49" fill="#82bef5"/>
      <rect x="555.02" y="145.93" width="9.63" height="18.49" fill="#82bef5"/>
      <rect x="599.17" y="145.93" width="9.63" height="18.49" fill="#82bef5"/>
      <rect x="577.1" y="171.91" width="9.63" height="18.49" fill="#82bef5"/>
      <rect x="555.02" y="171.91" width="9.63" height="18.49" fill="#82bef5"/>
      <rect x="599.17" y="171.91" width="9.63" height="18.49" fill="#82bef5"/>
      <rect x="577.1" y="197.89" width="9.63" height="18.49" fill="#82bef5"/>
      <rect x="555.02" y="197.89" width="9.63" height="18.49" fill="#82bef5"/>
      <rect x="599.17" y="197.89" width="9.63" height="18.49" fill="#82bef5"/>
    </g>
    <g>
      <g>
        <rect x="435.12" y="49.63" width="73.99" height="187.1" fill="#003cb4"/>
        <rect x="467.3" y="67.45" width="9.63" height="148.95" fill="#82bef5"/>
        <rect x="445.23" y="67.45" width="9.63" height="148.95" fill="#82bef5"/>
        <rect x="489.38" y="67.45" width="9.63" height="148.95" fill="#82bef5"/>
      </g>
      <path d="M505.62,36.62H493.1a26.91,26.91,0,0,0-20.9-9.95H472a26.91,26.91,0,0,0-20.9,9.95H438.62l-3.39,13H509Z" fill="#1964dc"/>
    </g>
    <g>
      <ellipse cx="548.57" cy="369.24" rx="54.12" ry="21.44" fill="#008cd2"/>
      <g>
        <path d="M534.31,173.84c-6.33-6.37-1.21-34.2,6-28.33,1.56-11.34.48-21.37,7.53-17.42,6.62,3.71,6.25,17.79,6.25,17.79,7.19-4.59,9.56,8.69,5,27.21,8.76-2.37,11.18,25.69,4,39.16,8.93-2.42,14.21,21.45,3.14,41,15.49,4.44-4.68,46.44-18.43,46.44-6.94,0-16.59-7.92-22.06-26.35-4.73-13.92-2-22.66,2.81-21.52-7.18-3.78-11.74-43.91,3.38-41.29C525.18,202.18,524.27,171.47,534.31,173.84Z" fill="#0bbcee"/>
        <path d="M548.27,281.2c-.65-24.37-1.29-49.15-1.7-68.14a4.32,4.32,0,0,0,.62.05c7.51,0,14.36-19.23,14.66-20.08l-1.27-.7c-2,5.68-8.4,20.13-14,19-.28-13-.44-23.09-.4-28.12l-1.69,0,.54,63.67c-1.88-1.51-4-4.61-6.25-9.14a93.89,93.89,0,0,1-3.8-8.93l-1.26.7c.24.68,5.62,15.76,11.33,19.38l.43,50.51a10.51,10.51,0,0,0,2.37.29,7.75,7.75,0,0,0,1-.07c-.15-5.41-.3-10.93-.45-16.47,2.7-1.55,5.16-4.66,7.34-9.26a49.32,49.32,0,0,0,2.94-8l-1.32-.53C557.25,265.47,554.19,277.2,548.27,281.2Z" fill="#008cd2"/>
        <path d="M547.81,299.65a10.51,10.51,0,0,1-2.37-.29c.28,34.61.38,64.66-.15,70.21l5.25.14c-.12-9.14-.9-37.77-1.77-70.13A7.75,7.75,0,0,1,547.81,299.65Z" fill="#0bbcee"/>
      </g>
    </g>
    <g>
      <path d="M263.74,137.37a5.21,5.21,0,0,1-2.41-.25l1-3.39,2.41,1.73Z" fill="#eba380"/>
      <path d="M259.64,138.09s.8-1.93,1.38-1.92.43,1,1,1.07,1.57-.48,2-.24,1.12,2.55,2.26,3.11,1.53,1.1,1.37,1.42-5.32-.66-8-3.44" fill="#ebebeb"/>
      <rect x="281.66" y="115.66" width="10.81" height="11.06" fill="#00bec8"/>
      <rect x="228.29" y="113.78" width="17.83" height="13.56" fill="#00bec8"/>
      <rect x="231.08" y="101.18" width="13.39" height="12.66" fill="#00bec8"/>
      <rect x="260.32" y="139.91" width="4.45" height="1.1" rx="0.16" transform="translate(89.35 -101.75) rotate(26.29)" fill="#1964dc"/>
      <rect x="259.39" y="142.25" width="4.58" height="0.59" transform="translate(22.79 320.68) rotate(-65.29)" fill="#1964dc"/>
      <path d="M263.82,127.26c-.72,1.36-1.89,7.15-1.89,7.15l3,1.09s5.08-8.54,6.16-10.31a3.12,3.12,0,0,0-.48-3.81,16.87,16.87,0,0,0-4.9,2.8S264.24,126.49,263.82,127.26Z" fill="#003cb4"/>
      <path d="M266.13,124.73s4.85-2.8,4.5-3.27a27.32,27.32,0,0,0-15.25-8.62l-.64,8.3Z" fill="#003cb4"/>
      <g>
        <path d="M242.89,129.2A14.15,14.15,0,1,0,257,143.35,14.16,14.16,0,0,0,242.89,129.2Zm0,26.39a12.25,12.25,0,1,1,12.24-12.24A12.25,12.25,0,0,1,242.89,155.59Z" fill="#003cb4"/>
        <path d="M287.67,129.2a14.15,14.15,0,1,0,14.15,14.15A14.16,14.16,0,0,0,287.67,129.2Zm0,26.39a12.25,12.25,0,1,1,12.24-12.24A12.25,12.25,0,0,1,287.67,155.59Z" fill="#003cb4"/>
        <path d="M287.67,144.29a.95.95,0,1,1,.94-.94A.95.95,0,0,1,287.67,144.29Z" fill="#1964dc"/>
        <path d="M261.34,149.14a3.63,3.63,0,1,1,.64,0A4.72,4.72,0,0,1,261.34,149.14Zm0-6.86a3.64,3.64,0,0,0-.56.05,3.18,3.18,0,1,0,.56-.05Z" fill="#000078"/>
        <path d="M261.34,146.11a.63.63,0,0,1-.62-.52.64.64,0,0,1,.51-.74.65.65,0,0,1,.47.11.63.63,0,0,1,.26.41.66.66,0,0,1-.1.47.63.63,0,0,1-.41.26Z" fill="#000078"/>
        <path d="M293.38,126.8H279.63a.24.24,0,0,0,0,.48h6.61l1.25,15.86.48,0-1.25-15.82h6.66a.24.24,0,1,0,0-.48Z" fill="#1964dc"/>
        <rect x="257.88" y="147.53" width="4.58" height="0.59" transform="translate(14.73 318.99) rotate(-64.5)" fill="#1964dc"/>
        <path d="M261.33,146.28a.87.87,0,1,1,.87-.87A.87.87,0,0,1,261.33,146.28Zm0-1.15a.27.27,0,0,0-.28.28.28.28,0,0,0,.28.28.29.29,0,0,0,.28-.28A.28.28,0,0,0,261.33,145.13Z" fill="#000078"/>
        <path d="M261.33,149.14a3.73,3.73,0,1,1,3.73-3.73A3.73,3.73,0,0,1,261.33,149.14Zm0-6.87a3.14,3.14,0,1,0,3.14,3.14A3.15,3.15,0,0,0,261.33,142.27Z" fill="#000078"/>
        <rect x="257.15" y="149.95" width="4.45" height="1.1" transform="matrix(0.96, 0.28, -0.28, 0.96, 52.4, -66.49)" fill="#1964dc"/>
        <path d="M253.87,130.71l-5.25-3.47a.37.37,0,0,0-.18,0H227.35v-3.41a.25.25,0,0,0-.25-.25H227a.25.25,0,0,0-.25.25v3.6a.32.32,0,0,0,0,.14.33.33,0,0,0,.33.33h9.85a.17.17,0,0,0,.06.06c5.1,3.6,8.46,10.1,8.49,10.16a.34.34,0,0,0,.3.18.4.4,0,0,0,.15,0,.35.35,0,0,0,.15-.45c0-.07-3.2-6.17-8-9.92h10.29l5.16,3.42a.37.37,0,0,0,.18,0,.31.31,0,0,0,.28-.15A.34.34,0,0,0,253.87,130.71Z" fill="#1964dc"/>
        <path d="M261.19,141.35c-.56,0-17.58.37-17.8.36a1.94,1.94,0,1,0-.18,3.87c.09,0,16.81,3.93,17.59,4a4.1,4.1,0,1,0,.39-8.19Z" fill="#1964dc"/>
        <path d="M287.67,145a1.67,1.67,0,1,1,1.66-1.66A1.66,1.66,0,0,1,287.67,145Z" fill="#1964dc"/>
        <line x1="276.7" y1="118.95" x2="278.97" y2="124.95" fill="#1964dc"/>
        <path d="M288,142.94a40.3,40.3,0,0,1-7.79-14.8l.21-.08-4.95-13.17c-.33-.81-.77-1.66-1.65-1.79a6.28,6.28,0,0,0-2.17.16l.67,1.21a4.16,4.16,0,0,1,1.18-.13c.28.07.45.23.77,1l3,8.22a18.93,18.93,0,0,0-8.3,6.06c-3.45,4.43-9.51,6.15-10.51,6.4l-5.28-14.53-.89.32,2.94,8.08c-1.81.85-9.16,4.71-12.25,12.61l.55,1.09.33-.74c2.89-7.39,9.88-11.19,11.69-12.07l5.37,14.8.1,0a.56.56,0,0,0,.73.28c2.36-1,7.75-4.16,10.11-9.22a43.93,43.93,0,0,1,2.78-5.11,16.62,16.62,0,0,1,2.53-3l1.44-1.36.52,1.4.14-.06a41.36,41.36,0,0,0,8.16,15.31.27.27,0,0,0,.48-.18h0A.47.47,0,0,0,288,142.94ZM276.4,127.66a17.47,17.47,0,0,0-2.7,3.24,43.88,43.88,0,0,0-2.86,5.24c-2,4.3-6.66,7.38-9.24,8.54l-2.75-7.58c1.38-.36,7.42-2.14,11-6.78a18.11,18.11,0,0,1,7.81-5.69l.51,1.35Z" fill="#1964dc"/>
        <path d="M267.12,113.44a.69.69,0,0,0-.48.31.7.7,0,0,0-.09.47l.09.65a.67.67,0,0,0,.75.57l4.66-.55a1,1,0,0,0,.83-1.09v-.1a1,1,0,0,0-1.06-.82Z" fill="#003cb4"/>
        <path d="M278.06,120.05a1.52,1.52,0,0,1,0-3h1.31v3Z" fill="#1964dc"/>
        <rect x="279.37" y="117.01" width="1.46" height="3.03" fill="#003cb4"/>
        <path d="M257.59,121l-9.28-1s-1.9,2.66,2.1,3.62a4.53,4.53,0,0,0,3.85-1,20.08,20.08,0,0,1,2.25-.08C258,122.51,258.37,121.06,257.59,121Z" fill="#1964dc"/>
      </g>
      <path d="M258.22,96.54c2.09-1,4-5,4-5L265.51,94s-1,2.22-1.81,3.45S258.22,96.54,258.22,96.54Z" fill="#eba380"/>
      <path d="M259.4,131.33l-9.92-10.49,4.62-6.8s10.48,10.32,9.89,15.36C263.88,130.36,259.4,131.33,259.4,131.33Z" fill="#003cb4"/>
      <path d="M247.71,111.2a25.2,25.2,0,0,0-.83,3.35c-.49,2.87,0,5,1.69,6.12a22.71,22.71,0,0,0,2.58,1.74c1.83.55.82.79.82.79s9.7-4.26,4.32-9C255.69,113.65,247.71,111.2,247.71,111.2Z" fill="#003cb4"/>
      <g>
        <path d="M260.24,93.36c-.13-.2.94-.8.4-2s-.75-2.55,1.23-3.38,3.21,2.31,3.21,2.31L264.52,93l-1.32-.64a20.27,20.27,0,0,1-2.06,1.44C260.85,94,260.62,93.54,260.24,93.36Z" fill="#000078"/>
        <g>
          <path d="M267.34,89.46s.93-.31.65-1.11c-.37-1.06-1.51-1.49-3.47-1.84,0,0,.69.5-2.36.87-1.82.22-1.24,3.29-.81,3.9a19.32,19.32,0,0,0,1.41,1.65A9.1,9.1,0,0,1,267.34,89.46Z" fill="#000078"/>
          <path d="M267.34,89.46a14.67,14.67,0,0,1,.48,1.93,2.12,2.12,0,0,0,.54,1.55c0,.11,0,.4-.45.42s-.18.57-.18.57,0,.2-.86.14c-.12,0,.2.19.75.21a.43.43,0,0,1-.14.4c-.18.14-.11.77-.25,1-.25.35-1.73,0-2.3-.09a4.31,4.31,0,0,1-1.28-.69s-.44-.62-.35-1a2.26,2.26,0,0,1-.69-1.28c-.31-1.79,1.31-2,1.62-.43.1.51.41.27.41.27s0-.22,0-1c0-.18-.41-1.62,1.27-1.67A3.6,3.6,0,0,0,267.34,89.46Z" fill="#eba380"/>
        </g>
      </g>
      <circle cx="267.21" cy="91.87" r="0.28" fill="#000078"/>
      <path d="M262.92,113l5.06.66,3.55-1.08a5.63,5.63,0,0,0-2.33-.81c-1.32,0-2.9-1.31-5.39-1.36Z" fill="#eba380"/>
      <path d="M268,113.61l1.23-1.32a.83.83,0,0,1,.53-.09l.61.1c.31,0,1.15,0,1.25.33,0,0,.77,1.28.59,1.93l-.26.3c-.11.32-1,.55-1.3.46l-.64.07c-.25,0-.8.17-1,0A1.59,1.59,0,0,0,268,113.61Z" fill="#eba380"/>
      <path d="M258.4,147.33a21.94,21.94,0,0,1,.85-4.11c.39-.63-2.94-3.75-2.79-1.79a9.24,9.24,0,0,1-1.33,4.19S257.89,147.4,258.4,147.33Z" fill="#eba380"/>
      <path d="M254,147.37s.71-2.4,1.4-2.46.64,1.15,1.29,1.15,1.8-.78,2.33-.54,1.66,2.88,3.08,3.39,1.95,1.13,1.8,1.53-6.39-.11-9.9-3.07" fill="#ebebeb"/>
      <path d="M259.46,144l-3.95-1.16s.55-10.33,3.63-13.8c1.8-2,5,1.72,5,1.72Z" fill="#003cb4"/>
      <path d="M263.09,87.68a26.11,26.11,0,0,0,3.14-1.19,3.47,3.47,0,0,0-6.26,1.7,4.53,4.53,0,0,0,.29,1.73A14.1,14.1,0,0,1,263.09,87.68Z" fill="#003cb4"/>
      <path d="M269.46,87.51c0,.58-.66,1.08-2.44.89-2-.22-4.37-.42-4.12-.61a7.92,7.92,0,0,1,4.61-1.49C269.27,86.46,269.45,87.11,269.46,87.51Z" fill="#00bec8"/>
      <path d="M263.76,97.35a3.42,3.42,0,0,1-4-2,4.26,4.26,0,0,0-1.08.11l-.19,0c-5.51.64-9.5,10-11.12,15.28-.21.67,1.12,1,1.12,1l0,0c2.17,1.07,7.88,3.51,10.9,1.3C264.29,105.83,264.74,98.56,263.76,97.35Z" fill="#00bec8"/>
      <path d="M258.76,97.07c4,1.53,1.9,9.46,1.9,9.46l6.46,3.92-2.07,3.24s-6,.19-9.87-3S254.8,95.54,258.76,97.07Z" fill="#00bec8"/>
      <path d="M267.52,90.76s-.86.09-1,.14a.42.42,0,0,0-.31.38,4.89,4.89,0,0,0,1.29-.19C267.63,91,267.52,90.76,267.52,90.76Z" fill="#000078"/>
    </g>
    <g>
      <g>
        <path d="M117.38,48.33c5.09-.28,3.29,11.35,10.66,15.25,6.56,3.46,4.64,10,3.16,13.87-1,2.69.61,4.64,3.15,7,4.7,4.27,3.47,14.16-2.21,19.14-7.33,6.43-13.76,7.88-13.76,7.88s-4.61-.6-11.33-5.57c-5.93-4.39-8.94-9.63-8.88-15.25.12-9.22,8.89-5.83,5.89-11.39-3.75-7-2.28-12.56,3.42-15.63C112.57,60.83,108.21,48.84,117.38,48.33Z" fill="#00bef0"/>
        <g>
          <path d="M119.4,111.14a2.44,2.44,0,0,0,0,.27A2.44,2.44,0,0,1,119.4,111.14Z" fill="#00bec8"/>
          <path d="M119.4,111.12c-.28-15.49-.68-35.54-.5-41.74l-.77-.07c-.19,6.23-.69,26.26-1,41.83A3.9,3.9,0,0,0,119.4,111.12Z" fill="#008cd2"/>
        </g>
        <path d="M118.55,80.91c-8-3.27-11-8.49-11.08-8.72l.64-.35c0,.06,3,5.24,10.71,8.4Z" fill="#008cd2"/>
        <path d="M118.94,100.53l-.14-.71c.08,0,8.71-1.86,11.12-9.88l.69.21C128.08,98.59,119,100.51,118.94,100.53Z" fill="#008cd2"/>
        <path d="M117.15,111.14c-.19,10.53-.29,19-.13,19.83,0,0,2.13.42,2.54-.37.16-.32,0-8.82-.16-19.48A3.9,3.9,0,0,1,117.15,111.14Z" fill="#00bef0"/>
      </g>
      <path d="M91,131.2c.18.06,22,0,22,0s-.75-10-2.24-13.65c-.68-1.64-2.87-4.12-6.36,1.37,0,0,.81-9.1-3.3-7.23-3.81,1.73-4,9.91-4,9.91s0-10.1-3.56-7.29C89.09,117.8,91,131.2,91,131.2Z" fill="#003cb4"/>
      <path d="M85.71,131.38h53.23s-8.15-7.93-16.36-3.44c-3.21,1.76-2.84-7-11.88-6.6-4.62.19-5.17,6.92-8.74,6.51-1.81-.43-2.17-3.7-4.66-4.08C95.56,123.51,90.32,124,85.71,131.38Z" fill="#00bef0"/>
    </g>
    <g>
      <rect y="160" width="193.69" height="500" fill="#1964dc"/>
      <g>
        <rect x="22.58" y="344.2" width="12.03" height="48.42" fill="#82e1e1"/>
        <rect x="22.58" y="276.17" width="12.03" height="48.42" fill="#82e1e1"/>
        <rect x="22.58" y="208.13" width="12.03" height="48.42" fill="#82e1e1"/>
        <rect x="22.58" y="412.24" width="12.03" height="48.42" fill="#82e1e1"/>
        <rect x="22.58" y="480.28" width="12.03" height="48.42" fill="#82e1e1"/>
        <rect x="22.58" y="548.32" width="12.03" height="48.42" fill="#82e1e1"/>
      </g>
      <g>
        <rect x="56.71" y="344.2" width="12.03" height="48.42" fill="#82e1e1"/>
        <rect x="56.71" y="276.17" width="12.03" height="48.42" fill="#82e1e1"/>
        <rect x="56.71" y="208.13" width="12.03" height="48.42" fill="#82e1e1"/>
        <rect x="56.71" y="412.24" width="12.03" height="48.42" fill="#82e1e1"/>
        <rect x="56.71" y="480.28" width="12.03" height="48.42" fill="#82e1e1"/>
        <rect x="56.71" y="548.32" width="12.03" height="48.42" fill="#82e1e1"/>
      </g>
      <g>
        <rect x="90.83" y="344.2" width="12.03" height="48.42" fill="#82e1e1"/>
        <rect x="90.83" y="276.17" width="12.03" height="48.42" fill="#82e1e1"/>
        <rect x="90.83" y="208.13" width="12.03" height="48.42" fill="#82e1e1"/>
        <rect x="90.83" y="412.24" width="12.03" height="48.42" fill="#82e1e1"/>
        <rect x="90.83" y="480.28" width="12.03" height="48.42" fill="#82e1e1"/>
        <rect x="90.83" y="548.32" width="12.03" height="48.42" fill="#82e1e1"/>
      </g>
      <g>
        <rect x="124.96" y="344.2" width="12.03" height="48.42" fill="#82e1e1"/>
        <rect x="124.96" y="276.17" width="12.03" height="48.42" fill="#82e1e1"/>
        <rect x="124.96" y="208.13" width="12.03" height="48.42" fill="#82e1e1"/>
        <rect x="124.96" y="412.24" width="12.03" height="48.42" fill="#82e1e1"/>
        <rect x="124.96" y="480.28" width="12.03" height="48.42" fill="#82e1e1"/>
        <rect x="124.96" y="548.32" width="12.03" height="48.42" fill="#82e1e1"/>
      </g>
      <g>
        <rect x="159.08" y="344.2" width="12.03" height="48.42" fill="#82e1e1"/>
        <rect x="159.08" y="276.17" width="12.03" height="48.42" fill="#82e1e1"/>
        <rect x="159.08" y="208.13" width="12.03" height="48.42" fill="#82e1e1"/>
        <rect x="159.08" y="412.24" width="12.03" height="48.42" fill="#82e1e1"/>
        <rect x="159.08" y="480.28" width="12.03" height="48.42" fill="#82e1e1"/>
        <rect x="159.08" y="548.32" width="12.03" height="48.42" fill="#82e1e1"/>
      </g>
    </g>
    <g>
      <path d="M322,230.68a12.89,12.89,0,0,1-3-2.38c-3-3.43-1.05-6.82-3.16-12.38-1.79-4.73-7-8.59-8.56-9.66l-.45-.27c7.36,12.93-8.36,22.51-8.36,22.51s-2.38-5.83-7-4c-3.31,1.3-4.5,6.68-1.69,11.32a5.79,5.79,0,0,0,1.17,1.43l-6.91,24.44s2.19,3.06,9.9,2.73,11.66-3.07,11.66-3.07,0-7.32.33-12.7l.33.08c4.42,1,8.62,1.64,8.62,1.64,3.22.31,4.19-1.32,4.46-2.66a4.77,4.77,0,0,0-.16-2.28l-.53-1.66s.34.29,1.41-.74c1.61-1.56-1.74-3.06-1.74-3.06,2.37.21,3.68-1.68,2.38-2.7a1.74,1.74,0,0,1-.47-2.33C324.18,232.64,322,230.68,322,230.68Z" fill="#eba380"/>
      <path d="M319.26,219.45c-1.52-8.12-8.74-12.42-15.89-15.15a22.68,22.68,0,0,0-17,.13c-11.93,4.86-17.5,18.87-12.45,31.29A25.11,25.11,0,0,0,286.66,249L291,237.25a5.86,5.86,0,0,1-1.2-1.46c-2.81-4.64-1.62-10,1.69-11.32,4.6-1.8,7,4,7,4s14.26-8.69,9.25-20.69a17.83,17.83,0,0,1,5.08,12.08Z" fill="#000078"/>
      <ellipse cx="313.02" cy="227.87" rx="1.57" ry="1.88" transform="translate(-11.85 17.23) rotate(-3.1)" fill="#000078"/>
      <path d="M315.54,222.59s-3.76,0-4.63.21a2.2,2.2,0,0,0-1.81,1.83,21.2,21.2,0,0,0,6-.29C316,223.93,315.54,222.59,315.54,222.59Z" fill="#000078"/>
      <path d="M314.49,250.27s18.76,10,18.8,31.4A43.24,43.24,0,0,0,339.44,304l-10.7.35a19,19,0,0,1-19.45-16.64l-4-30.1.62-9Z" fill="#000078"/>
      <g id="leg">
        <path d="M334,485.83c.22-14.1,3.18-56.68,3.18-56.68s-39.26-82-47.33-62.41c0,0,24.43,95.46,25.29,103.6s-4.58,23.79-.07,51.83c2.25,14,7.9,60.62,7.9,60.62l7.85,6.82,4.75-10S333.8,495.77,334,485.83Z" fill="#eba380"/>
        <g>
          <path d="M321.3,580.43c-1,.27-3.61,17.5-2,18.39s45.56,1.6,48.11-.9c1.34-1.31-.08-7.12-1-7.38a107.34,107.34,0,0,1-30.26-14.33s-3.4,2.2-2.89,4.52l.52,1s-2.74,2.56-5.4,2.31S323.77,579.76,321.3,580.43Z" fill="#000078"/>
          <path d="M343.12,580.62a9,9,0,0,0-3.28,4.88l.68.18a8.33,8.33,0,0,1,3.17-4.6l.12-.07Z" fill="#fff"/>
          <path d="M347,582.74a9.11,9.11,0,0,0-3.06,4.71l.68.18a8.37,8.37,0,0,1,3.08-4.53Z" fill="#fff"/>
        </g>
      </g>
      <g id="leg-2" data-name="leg">
        <path d="M264.09,395.71s4.8,32.91,6.46,75.55c1.45,37.39-6.46,37.57.3,90.16l.88,19.47,10.82,5.26s3.26-59.2,17.3-199.4C299.85,386.75,272,376.06,264.09,395.71Z" fill="#eba380"/>
        <path d="M285.55,586.33a6.51,6.51,0,0,0-1.83-3c-.67-.66-1-1.08-1.72-3.15-.68-1.87-3.29-2.43-4.91-2.5H277c-1.62.07-4.22.63-4.91,2.5-.76,2.07-1,2.49-1.72,3.15a6.59,6.59,0,0,0-1.83,3c-.15,1.06-2.95,13.29-.15,13.48,1.35.1,5-.1,8.6,0h.14c3.58-.07,7.26.13,8.6,0C288.51,599.62,285.7,587.39,285.55,586.33Z" fill="#000078"/>
      </g>
      <g id="_02" data-name="02">
        <path d="M263.93,270.22c2.49-2.48,14.82-10,23.63-10.9.25,0,16.8.53,17.15.64,4,1.16,17.69,8.2,23.29,14.19h0s10.13,9.44,12.78,28.4c0,0-6.95,36.19-5.6,45,4,26.31,11.07,95.4,7.42,123.21,0,0-68.16,6.8-82.88,1.32C255.79,449.74,259.59,300.08,263.93,270.22Z" fill="#82bef5"/>
        <g>
          <path d="M346.2,407.4s2.08,4.1,1.77,5.06a28.23,28.23,0,0,0-1.16,6.8c-.16,3.24,1.36,9.94,1.45,10.95s.47,7.48,2.91,7.32c2.21-.16,1.52-7.06,1.52-7.66s-.13-4.84.47-4.84,2.68-9.09.32-11.82S346.2,407.4,346.2,407.4Z" fill="#eba380"/>
          <path d="M350.39,434.44c-1.08.77-2.88,3.79-2.66,4.6s8,.42,8,.42,3.52-2.49,3.12-5.74c-.2-1.54-10-22.48-10.86-21.26a23.3,23.3,0,0,0-.7,12l9,8S351.66,433.54,350.39,434.44Z" fill="#eba380"/>
          <path d="M352.07,425.24a6.58,6.58,0,0,1,2.4,1.8c.62,1,1.58,8.38,1.58,8.38s-4.87,3.47-5.37,4.95-.44,2.85.18,2.58c3.34-1.43,6.91-3.55,8.37-6,1-1.68,1.19-7.77,1.19-7.77a6,6,0,0,0,.66-2.92c-.19-1.22-3.38-9.07-3.38-9.07L356,406l-9.83,1.4Z" fill="#eba380"/>
        </g>
        <path d="M274.51,394.54l-10.34,4.65s-18.75-27.6-21.48-42.77c-3.72-20.73-5.28-62,21.24-86.2,8.54,2.36,10.13,19.38,9.53,36.21-.64,17.69-9.37,43.64-9.37,43.64Z" fill="#82bef5"/>
        <path d="M336.75,287.81S345,310,348.31,350.68c.64,7.83,11.24,58,11.24,58l-15.11,3.6s-21.43-47.56-24.6-61.64S336.75,287.81,336.75,287.81Z" fill="#82bef5"/>
      </g>
    </g>
    <g>
      <g>
        <path d="M466,221.88c-1.21-18.54-24.15-21.43-33.63-11-.87,1-1.5,4-1.33,6.67.08,1.17,1.46,3.59,1.41,4.52-.07,1.34-3.45,5.09-4.28,6.51s-1.29,2.48.47,3.29c1.27.57,2.78.47,3.41,1.46a3.08,3.08,0,0,1-.32,2.29.78.78,0,0,0-.07,1.16c.32.3,3.64.3,3.64.3,0,.3-2.41,1.41-2.88,1.67s-.69.75.36,1.94a18,18,0,0,1,.28,3.06c0,1.47.34,3.91,3,3.89,7-.08,19.29-.59,21.34-2.53S466.14,223.66,466,221.88Z" fill="#eba380"/>
        <path d="M429.23,200.72c.82-1.89,4.06.39,5.4-1.17,1.08-1.27-4.95-4.07-3.22-6,6.18-6.91,32.48-2.88,36.58,4.72,3.9,1.65,8.18,9.61,8.44,13.93,1.1,18-10.74,28-13.37,30.55-2.24-5.36-3.85-3.17-4-7.74-.06-1.8,0-3.32-.07-4.6a8.18,8.18,0,0,0,3-5.14c.71-3.81-.93-7.32-3.67-7.84s-5.55,2.16-6.27,6c-.05.25-.08.5-.11.75h0c-2.78-.48-.53-10.2-.68-11.52-1-8.87-15.54-5.37-18.74-1.46C432,211.65,427.49,204.74,429.23,200.72Z" fill="#000078"/>
        <path d="M433.83,215.79s6-.27,7.22-.09a3.06,3.06,0,0,1,2.67,2.41c.1.25-8,.6-9.16.09S433.83,215.79,433.83,215.79Z" fill="#000078"/>
        <ellipse cx="437.05" cy="221.91" rx="1.77" ry="2.18" transform="translate(-6.35 12.98) rotate(-1.69)" fill="#000078"/>
      </g>
      <g>
        <path d="M412.26,433.92l.78.05s3.07,4.52,2.83,5.38-8.49.45-8.49.45-3.74-2.66-3.31-6.12c.2-1.63,3.4-9.53,4.51-10.65,2.68-2.69,4.46,2.58,4.46,2.58l-6.28,6.79Z" fill="#eba380"/>
        <path d="M417.5,405.68s-2.21,4.35-1.88,5.38a30.08,30.08,0,0,1,1.23,7.23c.17,3.46-1.44,10.58-1.53,11.66s-.51,8-3.1,7.78c-2.36-.16-1.62-7.5-1.62-8.14s.13-5.16-.51-5.16-2.85-9.67-.33-12.57S417.5,405.68,417.5,405.68Z" fill="#eba380"/>
        <path d="M411.25,424.66a7,7,0,0,0-2.55,1.91c-.66,1.07-1.68,8.92-1.68,8.92s5.19,3.7,5.72,5.27.46,3-.19,2.75c-3.56-1.53-7.36-3.78-8.91-6.37-1.07-1.79-1.27-8.26-1.27-8.26a6.48,6.48,0,0,1-.7-3.11c.2-1.3,3.59-9.66,3.59-9.66L407,404.19l10.46,1.49Z" fill="#eba380"/>
      </g>
      <path d="M425,272.93c-10.63,8.23-13.59,59.1-16.75,77.43s-10.57,44.94-6.94,59.38c.76,3,3.15,2.66,14.09,1.58,4.71-9.27,2.78-38.36,2.78-38.36S450.73,276.38,425,272.93Z" fill="#003cb4"/>
      <g id="_03_Front" data-name="03 Front">
        <g id="leg-3" data-name="leg">
          <polygon points="432.72 580.43 424.55 587.87 419 577.47 419 564.49 432.72 563.95 432.72 580.43" fill="#eba380"/>
          <path d="M463.21,367.92S442.89,472.39,442,480.51s1.71,47.89-7.67,84.79c0,0-11.37,1.82-17.9.59-.5-15.27-1.83-70.08-2-80-.22-14.08-.68-93.92-.68-93.92S455.15,348.38,463.21,367.92Z" fill="#000078"/>
          <path d="M433.94,578.74c1,.27,3.68,17.83,2.08,18.75s-46.44,1.63-49-.93c-1.37-1.34.09-7.25,1-7.52a103.65,103.65,0,0,0,29.87-13.95s4.44,1.59,3.92,4l-.53,1s2.79,2.61,5.49,2.35S431.42,578.05,433.94,578.74Z" fill="#ebebeb"/>
        </g>
        <g id="leg-4" data-name="leg">
          <polygon points="470.15 583.91 483.05 580.39 482.75 563.86 469.09 563.86 470.15 583.91" fill="#eba380"/>
          <path d="M492.8,391.13s-4.57,48.92-6.26,94.08c3,37.75-.28,74.55-.29,79.74-3.54,3.21-19.11,0-19.11,0-.17-9.89-2.29-45.66-6.48-77.86-6.16-47.29-15.1-99.33-15.1-99.33S485,371.5,492.8,391.13Z" fill="#000078"/>
        </g>
      </g>
      <path d="M466.38,258.18l-6.33-29.39c-8.2-1.54-17.14,15.79-17.14,15.79s-.76,9.47-1.05,16.43a37,37,0,0,1,5.29-2.19C447.46,258.72,462.91,258.26,466.38,258.18Z" fill="#eba380"/>
      <path d="M467.07,258.17h-.69l.15.68A6.08,6.08,0,0,0,467.07,258.17Z" fill="#008cd2"/>
      <path d="M441.81,262.35c0-.43,0-.88.05-1.34l-.76.38A3.62,3.62,0,0,0,441.81,262.35Z" fill="#008cd2"/>
      <path d="M479.1,392.2l21.78-43.13s-20.1-27.18-20.73-44.84c-.61-16.8,1-33.79,9.51-36.14-2.49-2.49-13.8-9.06-22.59-9.92l-.27,1.93.83,3.89-1.49.69-10.46,73.19-5.83,33.48-8.78-109.94C436,264,429.43,268,425.69,272h0s-7.18,5.16-9.82,24.09c0,0,4,40.4,2.65,49.16-4,26.28-8.37,39.65-4.73,67.41,0,0,37.85-1.87,55.39-11.64l24.61,12.59c4.18-4.41,6.64-11.94,7.87-21.35-4.52,5.51-7.87,9.24-7.87,9.24Z" fill="#003cb4"/>
      <path d="M454.73,264.17c6.84-.39,10.51-3.81,11.8-5.31l-.15-.68C463,256,444,257,441.86,261c0,.46,0,.91-.05,1.34C443.51,264,447.23,264.6,454.73,264.17Z" fill="#eba380"/>
      <polygon points="467.63 263.99 466.8 260.1 466.14 264.68 467.63 263.99" fill="#003cb4"/>
      <path d="M489.66,268.09c-8.52,2.35-10.12,19.34-9.51,36.14.63,17.66,20.73,44.84,20.73,44.84L479.1,392.2l14.69,9.3s3.35-3.73,7.87-9.24C506.43,356,493.1,291.75,489.66,268.09Z" fill="#008cd2"/>
      <path d="M441.06,261.33v.08l0,0Z" fill="#ebebeb"/>
      <path d="M455.68,337.87l10.46-73.19L454.7,270,442,268.19c-.27-.44-.29-2.78-.19-5.84a3.62,3.62,0,0,1-.71-1l0,0,8.78,109.94Z" fill="#ebebeb"/>
      <path d="M466.8,260.1l.27-1.93a6.08,6.08,0,0,1-.54.69Z" fill="#ebebeb"/>
      <path d="M454.73,264.17c-7.5.43-11.22-.18-12.92-1.82-.1,3.06-.08,5.4.19,5.84L454.7,270l11.44-5.33.66-4.58-.27-1.24C465.24,260.36,461.57,263.78,454.73,264.17Z" fill="#ebebeb"/>
      <path d="M452.78,383.68a3.68,3.68,0,1,1-3.7-3.66A3.68,3.68,0,0,1,452.78,383.68Z" fill="#000078"/>
      <path d="M452.86,394.59a3.68,3.68,0,1,1-3.7-3.66A3.68,3.68,0,0,1,452.86,394.59Z" fill="#000078"/>
      <path d="M483.06,575.47a12.37,12.37,0,0,0-7.2-2.21,12.57,12.57,0,0,0-6.55,1.78l-5.45,19.17V598s0,.1.07.32a28.16,28.16,0,0,0,11.75,2.2c5.24,0,9.85-1,12.53-2.61v-3.68Z" fill="#ebebeb"/>
      <g>
        <path d="M512.36,445.08c-.06-9.87-8.88-17.85-19.66-17.79a20.38,20.38,0,0,0-13.7,5.24,17.08,17.08,0,0,0-5.75,12.77l4.95,0a12.14,12.14,0,0,1,4.14-9.09,15.46,15.46,0,0,1,10.39-3.94c8,0,14.64,5.73,14.68,12.86Z" fill="#008cd2"/>
        <rect x="445.28" y="443.04" width="94.69" height="64.68" rx="4.48" transform="translate(987.97 947.92) rotate(179.67)" fill="#008cd2"/>
      </g>
      <path d="M483.52,428h0c.47-2.85,3.39-6.84,3.94-8.9s4.41-17.19,4.41-17.19l11.36,2.64L500,420.25l1.06,12.2a4,4,0,0,1-1.42,3.06,1.82,1.82,0,0,1-1.5.34s-1.26,1.93-2.22,1.95-1.84,0-1.84,0a5,5,0,0,1-1.84,1.63c-1,.38-2.82-1-2.82-1s-1.63,2.25-3,1.82c-.4-.13-.83-.93-1.23-2.08a8.36,8.36,0,0,1-1.88,1.53C481.12,440.62,483.52,428,483.52,428Z" fill="#eba380"/>
      <path d="M481.87,268.26c-14.52,9.85-8.55,28.33,4.15,75.85l-2.08,67.3,20.74.71s19.85-43.94,16.05-65.79S500.31,255.74,481.87,268.26Z" fill="#003cb4"/>
    </g>
  </g>
</svg>
